{"glyphs":{"0":{"ha":1042,"x_min":43,"x_max":998,"o":"m 521 -43 q 183 122 323 -43 q 43 521 43 287 q 183 920 43 755 q 521 1085 323 1085 q 859 920 719 1085 q 998 521 998 755 q 859 122 998 287 q 521 -43 719 -43 m 521 130 q 736 244 647 130 q 825 521 825 359 q 736 797 825 683 q 521 911 647 911 q 306 797 395 911 q 217 521 217 683 q 306 244 217 359 q 521 130 395 130 z "},"1":{"ha":347,"x_min":43,"x_max":304,"o":"m 304 0 l 130 0 l 130 746 l 43 694 l 43 868 l 304 1087 l 304 0 z "},"2":{"ha":825,"x_min":43,"x_max":781,"o":"m 56 897 q 115 971 79 936 q 391 1085 229 1085 q 667 971 553 1085 q 781 694 781 857 q 717 478 781 572 l 718 477 l 709 467 q 685 437 698 452 l 454 174 l 781 174 l 781 0 l 43 0 l 391 368 q 608 694 608 604 q 544 848 608 785 q 391 911 481 911 q 237 848 300 911 q 184 764 200 811 l 56 897 z "},"3":{"ha":861,"x_min":43,"x_max":817,"o":"m 149 908 q 212 996 172 956 q 427 1085 300 1085 q 642 996 553 1085 q 730 781 730 907 q 644 608 730 676 q 817 347 817 521 q 703 71 817 185 q 427 -43 589 -43 q 151 71 264 -43 q 43 269 65 156 l 214 304 q 273 194 225 241 q 427 130 336 130 q 580 194 517 130 q 644 347 644 257 q 373 480 623 480 q 296 477 337 480 l 296 651 q 557 781 557 651 q 519 873 557 836 q 427 911 481 911 q 334 873 372 911 q 300 814 309 848 l 149 908 z "},"4":{"ha":911,"x_min":43,"x_max":868,"o":"m 43 260 l 217 1042 l 391 1042 l 260 434 l 521 434 l 521 1042 l 694 1042 l 694 434 l 868 434 l 868 260 l 694 260 l 694 0 l 521 0 l 521 260 l 43 260 z "},"5":{"ha":861,"x_min":43,"x_max":818,"o":"m 87 521 l 87 1042 l 781 1042 l 781 868 l 260 868 l 260 694 q 494 694 391 694 q 673 651 597 694 q 818 368 818 568 q 817 347 818 357 q 703 71 817 185 q 427 -43 589 -43 q 151 71 264 -43 q 43 269 65 156 l 214 304 q 273 194 225 241 q 427 130 336 130 q 580 194 517 130 q 644 347 644 257 l 644 355 q 464 521 644 524 q 87 521 347 521 z "},"6":{"ha":868,"x_min":43,"x_max":825,"o":"m 434 130 q 588 194 524 130 q 651 347 651 257 q 588 501 651 437 q 434 564 524 564 q 280 501 344 564 q 217 347 217 437 q 280 194 217 257 q 434 130 344 130 m 704 1042 l 455 737 q 711 624 604 730 q 825 347 825 509 q 710 71 825 185 q 434 -43 596 -43 q 158 71 272 -43 q 43 347 43 185 q 108 564 43 469 l 107 564 l 116 574 q 140 605 127 590 l 495 1042 l 704 1042 z "},"7":{"ha":781,"x_min":43,"x_max":738,"o":"m 304 0 l 130 0 l 477 868 l 43 868 l 43 1042 l 738 1042 l 304 0 z "},"8":{"ha":868,"x_min":43,"x_max":825,"o":"m 675 655 q 711 624 693 641 q 825 347 825 509 q 710 71 825 185 q 434 -43 596 -43 q 158 71 272 -43 q 43 347 43 185 q 158 624 43 509 q 193 655 175 641 q 152 803 152 721 q 235 1002 152 920 q 434 1085 317 1085 q 633 1002 551 1085 q 716 803 716 920 q 675 655 716 721 m 434 694 q 511 726 479 694 q 543 803 543 758 q 511 880 543 848 q 434 911 479 911 q 357 880 389 911 q 326 803 326 848 q 357 726 326 758 q 434 694 389 694 m 434 130 q 588 194 524 130 q 651 347 651 257 q 588 501 651 437 q 434 564 524 564 q 280 501 344 564 q 217 347 217 437 q 280 194 217 257 q 434 130 344 130 z "},"9":{"ha":868,"x_min":43,"x_max":825,"o":"m 434 911 q 280 848 344 911 q 217 694 217 785 q 280 541 217 604 q 434 477 344 477 q 588 541 524 477 q 651 694 651 604 q 588 848 651 785 q 434 911 524 911 m 164 0 l 413 304 q 157 418 264 311 q 43 694 43 532 q 158 971 43 857 q 434 1085 272 1085 q 710 971 596 1085 q 825 694 825 857 q 760 478 825 572 l 761 477 l 752 467 q 728 437 741 452 l 373 0 l 164 0 z "}," ":{"ha":345,"x_min":0,"x_max":0,"o":""},"!":{"ha":347,"x_min":43,"x_max":304,"o":"m 174 0 q 81 38 119 0 q 43 130 43 76 q 81 222 43 184 q 174 260 119 260 q 266 222 228 260 q 304 130 304 184 q 266 38 304 76 q 174 0 228 0 m 239 347 l 109 347 l 65 1042 l 282 1042 l 239 347 z "},"\"":{"ha":651,"x_min":43,"x_max":608,"o":"m 130 911 q 81 949 119 911 q 43 1042 43 987 q 81 1134 43 1096 q 174 1172 119 1172 q 266 1134 228 1172 q 304 1042 304 1096 q 270 946 304 998 q 130 781 236 894 l 130 911 m 434 911 q 385 949 423 911 q 347 1042 347 987 q 385 1134 347 1096 q 477 1172 423 1172 q 570 1134 532 1172 q 608 1042 608 1096 q 574 946 608 998 q 434 781 540 894 l 434 911 z "},"#":{"ha":985,"x_min":43,"x_max":941,"o":"m 252 434 l 298 608 l 125 608 l 160 738 l 334 738 l 415 1042 l 545 1042 l 464 738 l 637 738 l 719 1042 l 849 1042 l 768 738 l 941 738 l 906 608 l 732 608 l 686 434 l 859 434 l 825 304 l 651 304 l 570 0 l 439 0 l 521 304 l 347 304 l 266 0 l 136 0 l 217 304 l 43 304 l 78 434 l 252 434 m 429 608 l 382 434 l 555 434 l 602 608 l 429 608 z "},"$":{"ha":795,"x_min":43,"x_max":751,"o":"m 352 666 l 352 903 q 317 886 334 897 q 256 793 261 850 q 255 783 255 788 q 275 726 255 751 q 336 675 296 700 q 352 666 344 671 m 439 136 q 507 160 476 143 q 578 256 572 194 q 578 266 578 261 q 558 329 578 298 q 502 389 538 359 q 439 433 473 411 l 439 136 m 439 618 l 473 600 q 622 506 557 555 q 722 393 687 456 q 751 273 751 340 q 750 243 751 258 q 684 81 741 148 q 535 -16 627 15 q 439 -37 490 -32 l 439 -174 l 352 -174 l 352 -39 l 333 -37 q 106 40 199 -26 q 43 96 71 65 l 149 237 q 211 181 175 205 q 351 134 272 141 l 352 134 l 352 482 q 338 490 345 486 l 327 496 q 235 550 280 521 q 154 615 190 578 q 98 701 118 652 q 82 785 82 738 q 83 812 82 798 q 144 964 92 901 q 281 1059 197 1028 q 352 1078 315 1072 l 352 1215 l 439 1215 l 439 1083 q 461 1082 450 1083 q 656 1013 578 1072 q 699 973 680 994 l 597 836 q 555 876 578 859 q 448 915 507 909 q 439 916 443 916 l 439 618 z "},"%":{"ha":1302,"x_min":43,"x_max":1259,"o":"m 955 174 q 863 212 901 174 q 825 304 825 250 q 863 396 825 358 q 955 434 901 434 q 1047 396 1009 434 q 1085 304 1085 358 q 1047 212 1085 250 q 955 174 1009 174 m 347 608 q 255 646 293 608 q 217 738 217 684 q 255 830 217 792 q 347 868 293 868 q 439 830 401 868 q 477 738 477 792 q 439 646 477 684 q 347 608 401 608 m 43 0 l 1042 1042 l 1259 1042 l 260 0 l 43 0 z "},"&":{"ha":1125,"x_min":43,"x_max":1082,"o":"m 407 137 q 462 132 446 132 q 591 163 532 132 q 655 256 650 194 q 656 266 656 261 q 636 329 656 298 q 579 388 616 359 q 496 444 542 418 q 415 490 456 468 l 404 496 q 372 514 388 505 q 248 349 263 410 q 241 304 241 326 q 272 210 241 261 q 407 137 302 159 m 659 852 q 633 876 647 865 q 525 915 585 909 q 501 916 513 916 q 390 883 441 916 q 333 793 338 850 q 332 783 332 788 q 353 726 332 751 q 413 675 373 700 q 507 624 454 651 l 513 621 l 551 600 q 697 513 626 559 l 724 631 l 894 521 l 863 406 l 1082 260 l 985 48 l 809 174 q 762 81 789 115 q 612 -16 704 15 q 463 -40 543 -40 q 410 -37 437 -40 q 184 40 276 -26 q 121 96 148 65 l 113 106 q 48 248 64 172 q 43 298 43 273 l 43 303 q 89 442 45 371 q 254 593 133 513 q 231 616 242 604 q 176 701 195 652 q 159 785 159 738 q 161 812 159 798 q 222 964 169 901 q 358 1059 275 1028 q 496 1084 422 1084 q 538 1082 517 1084 q 733 1013 655 1072 q 772 977 755 996 l 659 852 z "},"'":{"ha":347,"x_min":43,"x_max":304,"o":"m 130 911 q 81 949 119 911 q 43 1042 43 987 q 81 1134 43 1096 q 174 1172 119 1172 q 266 1134 228 1172 q 304 1042 304 1096 q 270 946 304 998 q 130 781 236 894 l 130 911 z "},"(":{"ha":434,"x_min":43,"x_max":391,"o":"m 391 1215 l 391 1042 q 217 521 217 1042 q 391 0 217 0 l 391 -174 q 43 521 43 -174 q 391 1215 43 1215 z "},")":{"ha":434,"x_min":43,"x_max":391,"o":"m 43 1215 q 391 521 391 1215 q 43 -174 391 -174 l 43 0 q 217 521 217 0 q 43 1042 217 1042 l 43 1215 z "},"*":{"ha":464,"x_min":43,"x_max":420,"o":"m 275 811 l 275 694 l 189 694 l 189 811 l 90 749 l 43 823 l 150 890 l 43 956 l 90 1030 l 189 968 l 189 1085 l 275 1085 l 275 968 l 374 1030 l 420 956 l 314 890 l 420 823 l 374 749 l 275 811 z "},"+":{"ha":608,"x_min":43,"x_max":564,"o":"m 391 608 l 564 608 l 564 434 l 391 434 l 391 260 l 217 260 l 217 434 l 43 434 l 43 608 l 217 608 l 217 781 l 391 781 l 391 608 z "},",":{"ha":347,"x_min":43,"x_max":304,"o":"m 130 0 q 81 38 119 0 q 43 130 43 76 q 81 222 43 184 q 174 260 119 260 q 266 222 228 260 q 304 130 304 184 q 270 35 304 87 q 130 -130 236 -18 l 130 0 z "},"-":{"ha":521,"x_min":43,"x_max":477,"o":"m 477 434 l 43 434 l 43 608 l 477 608 l 477 434 z "},".":{"ha":347,"x_min":43,"x_max":304,"o":"m 174 0 q 81 38 119 0 q 43 130 43 76 q 81 222 43 184 q 174 260 119 260 q 266 222 228 260 q 304 130 304 184 q 266 38 304 76 q 174 0 228 0 z "},"/":{"ha":563,"x_min":43,"x_max":519,"o":"m 217 -43 l 43 -43 l 346 1085 l 519 1085 l 217 -43 z "},":":{"ha":347,"x_min":43,"x_max":304,"o":"m 174 0 q 81 38 119 0 q 43 130 43 76 q 81 222 43 184 q 174 260 119 260 q 266 222 228 260 q 304 130 304 184 q 266 38 304 76 q 174 0 228 0 m 174 391 q 81 429 119 391 q 43 521 43 467 q 81 613 43 575 q 174 651 119 651 q 266 613 228 651 q 304 521 304 575 q 266 429 304 467 q 174 391 228 391 z "},";":{"ha":347,"x_min":43,"x_max":304,"o":"m 174 391 q 81 429 119 391 q 43 521 43 467 q 81 613 43 575 q 174 651 119 651 q 266 613 228 651 q 304 521 304 575 q 266 429 304 467 q 174 391 228 391 m 130 0 q 81 38 119 0 q 43 130 43 76 q 81 222 43 184 q 174 260 119 260 q 266 222 228 260 q 304 130 304 184 q 270 35 304 87 q 130 -130 236 -18 l 130 0 z "},"<":{"ha":651,"x_min":43,"x_max":608,"o":"m 608 651 l 304 477 l 608 304 l 608 130 l 43 477 l 608 825 l 608 651 z "},"=":{"ha":521,"x_min":43,"x_max":477,"o":"m 477 521 l 43 521 l 43 694 l 477 694 l 477 521 m 477 260 l 43 260 l 43 434 l 477 434 l 477 260 z "},">":{"ha":651,"x_min":43,"x_max":608,"o":"m 43 651 l 43 825 l 608 477 l 43 130 l 43 304 l 347 477 l 43 651 z "},"?":{"ha":795,"x_min":43,"x_max":751,"o":"m 201 347 l 201 350 q 338 554 201 478 q 419 600 378 576 q 502 655 465 626 q 560 718 538 685 q 578 778 578 745 q 578 788 578 783 q 507 884 572 850 q 385 911 455 911 q 351 910 368 911 q 211 863 272 903 q 149 806 175 839 l 43 948 q 106 1004 71 979 q 333 1081 199 1069 q 386 1084 360 1084 q 546 1056 466 1084 q 684 962 627 1029 q 750 800 741 896 q 751 771 751 785 q 719 646 751 704 q 498 468 687 588 q 395 347 395 391 l 201 347 m 309 0 q 216 38 254 0 q 178 130 178 76 q 216 222 178 184 q 309 260 254 260 q 401 222 363 260 q 439 130 439 184 q 401 38 439 76 q 309 0 363 0 z "},"@":{"ha":1199,"x_min":43,"x_max":1156,"o":"m 611 305 q 452 252 549 252 q 321 304 363 252 q 291 394 291 340 q 296 446 291 418 q 445 696 326 587 q 702 806 563 806 q 890 803 773 806 q 793 515 808 559 q 770 439 778 471 q 768 421 768 429 q 779 405 768 405 q 890 478 836 405 q 964 652 943 551 q 979 741 979 701 q 938 850 979 809 q 757 916 873 916 q 425 778 573 916 q 233 429 277 640 q 223 346 223 385 q 264 210 223 265 q 450 127 325 127 q 587 150 517 127 q 718 229 657 172 l 791 99 q 600 3 706 36 q 402 -31 494 -31 q 111 94 208 -31 q 43 302 43 180 q 56 414 43 355 q 327 884 116 695 q 805 1072 538 1072 q 1090 966 997 1072 q 1156 778 1156 891 q 1143 675 1156 730 q 995 387 1109 513 q 737 260 880 260 q 611 305 641 260 m 694 673 q 556 601 613 669 q 482 453 499 533 q 479 432 479 441 q 507 402 479 402 q 577 434 543 402 q 634 519 611 465 q 694 673 656 574 z "},"A":{"ha":1128,"x_min":43,"x_max":1085,"o":"m 317 174 l 239 0 l 43 0 l 564 1128 l 1085 0 l 890 0 l 811 174 l 317 174 m 732 347 l 564 716 l 397 347 l 732 347 z "},"B":{"ha":868,"x_min":43,"x_max":825,"o":"m 521 434 l 217 434 l 217 174 l 521 174 q 613 212 575 174 q 651 304 651 250 q 613 396 651 358 q 521 434 575 434 m 217 608 l 347 608 q 439 646 401 608 q 477 738 477 684 q 439 830 477 792 q 347 868 401 868 l 217 868 l 217 608 m 43 1042 l 347 1042 q 562 953 473 1042 q 651 738 651 864 q 616 593 651 659 q 736 519 682 572 q 825 304 825 430 q 736 89 825 178 q 521 0 647 0 l 43 0 l 43 1042 z "},"C":{"ha":1072,"x_min":43,"x_max":1028,"o":"m 607 911 q 332 798 446 911 q 217 521 217 683 q 331 244 217 359 q 608 130 446 130 q 861 224 754 130 l 985 100 q 608 -43 826 -43 q 209 122 374 -43 q 43 521 43 287 q 209 920 43 755 q 607 1085 374 1085 l 608 1085 q 1007 920 842 1085 q 1028 898 1018 909 l 905 775 q 884 798 895 787 q 608 911 770 911 l 607 911 z "},"D":{"ha":1042,"x_min":43,"x_max":998,"o":"m 43 1042 l 477 1042 q 846 889 693 1042 q 998 521 998 736 q 846 153 998 305 q 477 0 693 0 l 43 0 l 43 1042 m 217 868 l 217 174 l 477 174 q 723 275 621 174 q 825 521 825 377 q 723 766 825 665 q 477 868 621 868 l 217 868 z "},"E":{"ha":694,"x_min":43,"x_max":651,"o":"m 651 1042 l 651 868 l 217 868 l 217 608 l 564 608 l 564 434 l 217 434 l 217 174 l 651 174 l 651 0 l 43 0 l 43 1042 l 651 1042 z "},"F":{"ha":694,"x_min":43,"x_max":651,"o":"m 217 434 l 217 0 l 43 0 l 43 1042 l 651 1042 l 651 868 l 217 868 l 217 608 l 564 608 l 564 434 l 217 434 z "},"G":{"ha":1215,"x_min":43,"x_max":1172,"o":"m 827 846 q 608 911 731 911 q 331 797 446 911 q 217 521 217 683 q 331 244 217 359 q 608 130 446 130 q 884 245 770 130 q 989 434 966 327 l 608 434 l 608 608 l 1172 608 l 1171 478 q 1007 122 1156 271 q 608 -43 842 -43 q 209 122 374 -43 q 43 521 43 287 q 209 920 43 755 q 608 1085 374 1085 l 608 1085 q 1008 920 842 1085 q 1029 898 1019 909 l 906 775 q 885 798 896 787 q 827 846 857 825 z "},"H":{"ha":868,"x_min":43,"x_max":825,"o":"m 217 434 l 217 0 l 43 0 l 43 1042 l 217 1042 l 217 608 l 651 608 l 651 1042 l 825 1042 l 825 0 l 651 0 l 651 434 l 217 434 z "},"I":{"ha":260,"x_min":43,"x_max":217,"o":"m 217 0 l 43 0 l 43 1042 l 217 1042 l 217 0 z "},"J":{"ha":780,"x_min":43,"x_max":736,"o":"m 161 231 q 193 194 174 212 q 346 130 256 130 q 499 194 436 130 q 563 347 563 257 l 563 1042 l 736 1042 l 736 347 q 622 71 736 185 q 346 -43 508 -43 q 70 71 184 -43 q 43 99 56 85 l 161 231 z "},"K":{"ha":868,"x_min":43,"x_max":825,"o":"m 217 469 l 217 0 l 43 0 l 43 1042 l 217 1042 l 217 573 l 608 1042 l 825 1042 l 391 521 l 825 0 l 608 0 l 217 469 z "},"L":{"ha":694,"x_min":43,"x_max":651,"o":"m 43 1042 l 217 1042 l 217 174 l 651 174 l 651 0 l 43 0 l 43 1042 z "},"M":{"ha":1128,"x_min":43,"x_max":1085,"o":"m 217 492 l 217 0 l 43 0 l 43 1128 l 564 260 l 1085 1128 l 1085 0 l 911 0 l 911 492 l 564 -87 l 217 492 z "},"N":{"ha":868,"x_min":43,"x_max":825,"o":"m 217 656 l 217 0 l 43 0 l 43 1128 l 651 386 l 651 1042 l 825 1042 l 825 -87 l 217 656 z "},"O":{"ha":1215,"x_min":43,"x_max":1172,"o":"m 608 -43 q 209 122 374 -43 q 43 521 43 287 q 209 920 43 755 q 608 1085 374 1085 q 1007 920 842 1085 q 1172 521 1172 755 q 1007 122 1172 287 q 608 -43 842 -43 m 608 130 q 884 244 770 130 q 998 521 998 359 q 884 797 998 683 q 608 911 770 911 q 331 797 446 911 q 217 521 217 683 q 331 244 217 359 q 608 130 446 130 z "},"P":{"ha":868,"x_min":43,"x_max":825,"o":"m 217 260 l 217 0 l 43 0 l 43 1042 l 434 1042 q 710 927 596 1042 q 825 651 825 813 q 710 375 825 489 q 434 260 596 260 l 217 260 m 217 868 l 217 434 l 434 434 q 588 497 524 434 q 651 651 651 561 q 588 805 651 741 q 434 868 524 868 l 217 868 z "},"Q":{"ha":1259,"x_min":43,"x_max":1215,"o":"m 924 291 q 998 521 998 391 q 884 797 998 683 q 608 911 770 911 q 331 797 446 911 q 217 521 217 683 q 331 244 217 359 q 608 130 446 130 q 812 186 722 130 l 564 434 l 781 434 l 924 291 m 937 62 q 608 -43 794 -43 q 209 122 374 -43 q 43 521 43 287 q 209 920 43 755 q 608 1085 374 1085 q 1007 920 842 1085 q 1172 521 1172 755 q 1048 168 1172 318 l 1215 0 l 998 0 l 937 62 z "},"R":{"ha":868,"x_min":43,"x_max":825,"o":"m 347 260 l 217 260 l 217 0 l 43 0 l 43 1042 l 434 1042 q 710 927 596 1042 q 825 651 825 813 q 711 375 825 489 q 549 276 639 303 l 825 0 l 608 0 l 347 260 m 217 868 l 217 434 l 434 434 q 588 497 524 434 q 651 651 651 561 q 588 805 651 741 q 434 868 524 868 l 217 868 z "},"S":{"ha":795,"x_min":43,"x_max":751,"o":"m 435 621 l 473 600 q 622 506 557 555 q 722 393 687 456 q 751 273 751 340 q 750 243 751 258 q 684 81 741 148 q 535 -16 627 15 q 386 -40 466 -40 q 333 -37 360 -40 q 106 40 199 -26 q 43 96 71 65 l 149 237 q 211 181 175 205 q 351 134 272 141 q 385 132 368 132 q 513 163 454 132 q 578 256 572 194 q 578 266 578 261 q 558 329 578 298 q 502 388 538 359 q 419 444 465 418 q 338 490 378 468 l 327 496 q 235 550 280 521 q 154 615 190 578 q 98 701 118 652 q 82 785 82 738 q 83 812 82 798 q 144 964 92 901 q 281 1059 197 1028 q 419 1084 345 1084 q 461 1082 439 1084 q 656 1013 578 1072 q 699 973 680 994 l 597 836 q 555 876 578 859 q 448 915 507 909 q 424 916 435 916 q 313 883 364 916 q 256 793 261 850 q 255 783 255 788 q 275 726 255 751 q 336 675 296 700 q 429 624 376 651 l 435 621 z "},"T":{"ha":781,"x_min":43,"x_max":738,"o":"m 477 868 l 477 0 l 304 0 l 304 868 l 43 868 l 43 1042 l 738 1042 l 738 868 l 477 868 z "},"U":{"ha":868,"x_min":43,"x_max":825,"o":"m 43 347 l 43 1042 l 217 1042 l 217 347 q 280 194 217 257 q 434 130 344 130 q 588 194 524 130 q 651 347 651 257 l 651 1042 l 825 1042 l 825 347 q 710 71 825 185 q 434 -43 596 -43 q 158 71 272 -43 q 43 347 43 185 z "},"V":{"ha":1128,"x_min":43,"x_max":1085,"o":"m 43 1042 l 239 1042 l 564 326 l 890 1042 l 1085 1042 l 564 -87 l 43 1042 z "},"W":{"ha":1476,"x_min":43,"x_max":1432,"o":"m 911 326 l 1237 1042 l 1432 1042 l 911 -87 l 738 290 l 564 -87 l 43 1042 l 239 1042 l 564 326 l 738 707 l 911 326 z "},"X":{"ha":955,"x_min":43,"x_max":911,"o":"m 380 521 l 43 1042 l 239 1042 l 477 672 l 716 1042 l 911 1042 l 575 521 l 911 0 l 716 0 l 477 370 l 239 0 l 43 0 l 380 521 z "},"Y":{"ha":955,"x_min":43,"x_max":911,"o":"m 391 494 l 380 521 l 43 1042 l 239 1042 l 477 672 l 716 1042 l 911 1042 l 575 521 l 564 501 l 564 0 l 391 0 l 391 494 z "},"Z":{"ha":868,"x_min":43,"x_max":825,"o":"m 521 868 l 43 868 l 43 1042 l 825 1042 l 347 174 l 825 174 l 825 0 l 43 0 l 521 868 z "},"[":{"ha":434,"x_min":43,"x_max":391,"o":"m 391 1215 l 391 1042 l 217 1042 l 217 0 l 391 0 l 391 -174 l 43 -174 l 43 1215 l 391 1215 z "},"\\":{"ha":563,"x_min":43,"x_max":519,"o":"m 346 -43 l 43 1085 l 217 1085 l 519 -43 l 346 -43 z "},"]":{"ha":434,"x_min":43,"x_max":391,"o":"m 43 1215 l 391 1215 l 391 -174 l 43 -174 l 43 0 l 217 0 l 217 1042 l 43 1042 l 43 1215 z "},"^":{"ha":608,"x_min":43,"x_max":564,"o":"m 43 1128 l 304 1389 l 564 1128 l 391 1128 l 304 1215 l 217 1128 l 43 1128 z "},"_":{"ha":781,"x_min":43,"x_max":738,"o":"m 738 -260 l 43 -260 l 43 -174 l 738 -174 l 738 -260 z "},"`":{"ha":373,"x_min":43,"x_max":330,"o":"m 277 1128 l 43 1251 l 149 1389 l 330 1197 l 277 1128 z "},"a":{"ha":1128,"x_min":43,"x_max":1085,"o":"m 317 174 l 239 0 l 43 0 l 564 1128 l 1085 0 l 890 0 l 811 174 l 317 174 m 732 347 l 564 716 l 397 347 l 732 347 z "},"b":{"ha":868,"x_min":43,"x_max":825,"o":"m 521 434 l 217 434 l 217 174 l 521 174 q 613 212 575 174 q 651 304 651 250 q 613 396 651 358 q 521 434 575 434 m 217 608 l 347 608 q 439 646 401 608 q 477 738 477 684 q 439 830 477 792 q 347 868 401 868 l 217 868 l 217 608 m 43 1042 l 347 1042 q 562 953 473 1042 q 651 738 651 864 q 616 593 651 659 q 736 519 682 572 q 825 304 825 430 q 736 89 825 178 q 521 0 647 0 l 43 0 l 43 1042 z "},"c":{"ha":1072,"x_min":43,"x_max":1028,"o":"m 607 911 q 332 798 446 911 q 217 521 217 683 q 331 244 217 359 q 608 130 446 130 q 861 224 754 130 l 985 100 q 608 -43 826 -43 q 209 122 374 -43 q 43 521 43 287 q 209 920 43 755 q 607 1085 374 1085 l 608 1085 q 1007 920 842 1085 q 1028 898 1018 909 l 905 775 q 884 798 895 787 q 608 911 770 911 l 607 911 z "},"d":{"ha":1042,"x_min":43,"x_max":998,"o":"m 43 1042 l 477 1042 q 846 889 693 1042 q 998 521 998 736 q 846 153 998 305 q 477 0 693 0 l 43 0 l 43 1042 m 217 868 l 217 174 l 477 174 q 723 275 621 174 q 825 521 825 377 q 723 766 825 665 q 477 868 621 868 l 217 868 z "},"e":{"ha":694,"x_min":43,"x_max":651,"o":"m 651 1042 l 651 868 l 217 868 l 217 608 l 564 608 l 564 434 l 217 434 l 217 174 l 651 174 l 651 0 l 43 0 l 43 1042 l 651 1042 z "},"f":{"ha":694,"x_min":43,"x_max":651,"o":"m 217 434 l 217 0 l 43 0 l 43 1042 l 651 1042 l 651 868 l 217 868 l 217 608 l 564 608 l 564 434 l 217 434 z "},"g":{"ha":1215,"x_min":43,"x_max":1172,"o":"m 827 846 q 608 911 731 911 q 331 797 446 911 q 217 521 217 683 q 331 244 217 359 q 608 130 446 130 q 884 245 770 130 q 989 434 966 327 l 608 434 l 608 608 l 1172 608 l 1171 478 q 1007 122 1156 271 q 608 -43 842 -43 q 209 122 374 -43 q 43 521 43 287 q 209 920 43 755 q 608 1085 374 1085 l 608 1085 q 1008 920 842 1085 q 1029 898 1019 909 l 906 775 q 885 798 896 787 q 827 846 857 825 z "},"h":{"ha":868,"x_min":43,"x_max":825,"o":"m 217 434 l 217 0 l 43 0 l 43 1042 l 217 1042 l 217 608 l 651 608 l 651 1042 l 825 1042 l 825 0 l 651 0 l 651 434 l 217 434 z "},"i":{"ha":260,"x_min":43,"x_max":217,"o":"m 217 0 l 43 0 l 43 1042 l 217 1042 l 217 0 z "},"j":{"ha":780,"x_min":43,"x_max":736,"o":"m 161 231 q 193 194 174 212 q 346 130 256 130 q 499 194 436 130 q 563 347 563 257 l 563 1042 l 736 1042 l 736 347 q 622 71 736 185 q 346 -43 508 -43 q 70 71 184 -43 q 43 99 56 85 l 161 231 z "},"k":{"ha":868,"x_min":43,"x_max":825,"o":"m 217 469 l 217 0 l 43 0 l 43 1042 l 217 1042 l 217 573 l 608 1042 l 825 1042 l 391 521 l 825 0 l 608 0 l 217 469 z "},"l":{"ha":694,"x_min":43,"x_max":651,"o":"m 43 1042 l 217 1042 l 217 174 l 651 174 l 651 0 l 43 0 l 43 1042 z "},"m":{"ha":1128,"x_min":43,"x_max":1085,"o":"m 217 492 l 217 0 l 43 0 l 43 1128 l 564 260 l 1085 1128 l 1085 0 l 911 0 l 911 492 l 564 -87 l 217 492 z "},"n":{"ha":868,"x_min":43,"x_max":825,"o":"m 217 656 l 217 0 l 43 0 l 43 1128 l 651 386 l 651 1042 l 825 1042 l 825 -87 l 217 656 z "},"o":{"ha":1215,"x_min":43,"x_max":1172,"o":"m 608 -43 q 209 122 374 -43 q 43 521 43 287 q 209 920 43 755 q 608 1085 374 1085 q 1007 920 842 1085 q 1172 521 1172 755 q 1007 122 1172 287 q 608 -43 842 -43 m 608 130 q 884 244 770 130 q 998 521 998 359 q 884 797 998 683 q 608 911 770 911 q 331 797 446 911 q 217 521 217 683 q 331 244 217 359 q 608 130 446 130 z "},"p":{"ha":868,"x_min":43,"x_max":825,"o":"m 217 260 l 217 0 l 43 0 l 43 1042 l 434 1042 q 710 927 596 1042 q 825 651 825 813 q 710 375 825 489 q 434 260 596 260 l 217 260 m 217 868 l 217 434 l 434 434 q 588 497 524 434 q 651 651 651 561 q 588 805 651 741 q 434 868 524 868 l 217 868 z "},"q":{"ha":1259,"x_min":43,"x_max":1215,"o":"m 924 291 q 998 521 998 391 q 884 797 998 683 q 608 911 770 911 q 331 797 446 911 q 217 521 217 683 q 331 244 217 359 q 608 130 446 130 q 812 186 722 130 l 564 434 l 781 434 l 924 291 m 937 62 q 608 -43 794 -43 q 209 122 374 -43 q 43 521 43 287 q 209 920 43 755 q 608 1085 374 1085 q 1007 920 842 1085 q 1172 521 1172 755 q 1048 168 1172 318 l 1215 0 l 998 0 l 937 62 z "},"r":{"ha":868,"x_min":43,"x_max":825,"o":"m 347 260 l 217 260 l 217 0 l 43 0 l 43 1042 l 434 1042 q 710 927 596 1042 q 825 651 825 813 q 711 375 825 489 q 549 276 639 303 l 825 0 l 608 0 l 347 260 m 217 868 l 217 434 l 434 434 q 588 497 524 434 q 651 651 651 561 q 588 805 651 741 q 434 868 524 868 l 217 868 z "},"s":{"ha":795,"x_min":43,"x_max":751,"o":"m 435 621 l 473 600 q 622 506 557 555 q 722 393 687 456 q 751 273 751 340 q 750 243 751 258 q 684 81 741 148 q 535 -16 627 15 q 386 -40 466 -40 q 333 -37 360 -40 q 106 40 199 -26 q 43 96 71 65 l 149 237 q 211 181 175 205 q 351 134 272 141 q 385 132 368 132 q 513 163 454 132 q 578 256 572 194 q 578 266 578 261 q 558 329 578 298 q 502 388 538 359 q 419 444 465 418 q 338 490 378 468 l 327 496 q 235 550 280 521 q 154 615 190 578 q 98 701 118 652 q 82 785 82 738 q 83 812 82 798 q 144 964 92 901 q 281 1059 197 1028 q 419 1084 345 1084 q 461 1082 439 1084 q 656 1013 578 1072 q 699 973 680 994 l 597 836 q 555 876 578 859 q 448 915 507 909 q 424 916 435 916 q 313 883 364 916 q 256 793 261 850 q 255 783 255 788 q 275 726 255 751 q 336 675 296 700 q 429 624 376 651 l 435 621 z "},"t":{"ha":781,"x_min":43,"x_max":738,"o":"m 477 868 l 477 0 l 304 0 l 304 868 l 43 868 l 43 1042 l 738 1042 l 738 868 l 477 868 z "},"u":{"ha":868,"x_min":43,"x_max":825,"o":"m 43 347 l 43 1042 l 217 1042 l 217 347 q 280 194 217 257 q 434 130 344 130 q 588 194 524 130 q 651 347 651 257 l 651 1042 l 825 1042 l 825 347 q 710 71 825 185 q 434 -43 596 -43 q 158 71 272 -43 q 43 347 43 185 z "},"v":{"ha":1128,"x_min":43,"x_max":1085,"o":"m 43 1042 l 239 1042 l 564 326 l 890 1042 l 1085 1042 l 564 -87 l 43 1042 z "},"w":{"ha":1476,"x_min":43,"x_max":1432,"o":"m 911 326 l 1237 1042 l 1432 1042 l 911 -87 l 738 290 l 564 -87 l 43 1042 l 239 1042 l 564 326 l 738 707 l 911 326 z "},"x":{"ha":955,"x_min":43,"x_max":911,"o":"m 380 521 l 43 1042 l 239 1042 l 477 672 l 716 1042 l 911 1042 l 575 521 l 911 0 l 716 0 l 477 370 l 239 0 l 43 0 l 380 521 z "},"y":{"ha":955,"x_min":43,"x_max":911,"o":"m 391 494 l 380 521 l 43 1042 l 239 1042 l 477 672 l 716 1042 l 911 1042 l 575 521 l 564 501 l 564 0 l 391 0 l 391 494 z "},"z":{"ha":868,"x_min":43,"x_max":825,"o":"m 521 868 l 43 868 l 43 1042 l 825 1042 l 347 174 l 825 174 l 825 0 l 43 0 l 521 868 z "},"{":{"ha":608,"x_min":43,"x_max":564,"o":"m 43 521 q 232 927 219 638 q 564 1215 244 1215 l 564 1042 q 391 825 391 1042 q 304 521 391 608 q 391 217 391 434 q 564 0 391 0 l 564 -174 q 232 115 244 -174 q 43 521 219 404 z "},"|":{"ha":260,"x_min":43,"x_max":217,"o":"m 217 1302 l 217 -260 l 43 -260 l 43 1302 l 217 1302 z "},"}":{"ha":608,"x_min":43,"x_max":564,"o":"m 376 927 q 382 782 376 927 q 564 521 389 638 q 376 115 389 404 q 43 -174 363 -174 l 43 0 q 217 217 217 0 q 304 521 217 434 q 217 825 217 608 q 43 1042 217 1042 l 43 1215 q 376 927 363 1215 z "},"~":{"ha":652,"x_min":43,"x_max":609,"o":"m 609 646 q 542 529 589 581 q 413 477 494 477 q 269 505 363 477 q 216 514 237 514 q 168 477 172 514 l 43 477 q 111 595 62 545 q 228 646 159 646 q 379 621 283 646 q 433 613 410 613 q 483 648 477 613 l 609 646 z "},"¡":{"ha":347,"x_min":43,"x_max":304,"o":"m 174 1042 q 266 1004 228 1042 q 304 911 304 966 q 266 819 304 857 q 174 781 228 781 q 81 819 119 781 q 43 911 43 857 q 81 1004 43 966 q 174 1042 119 1042 m 239 694 l 282 0 l 65 0 l 109 694 l 239 694 z "},"¢":{"ha":713,"x_min":43,"x_max":670,"o":"m 349 178 l 349 516 q 268 470 303 505 q 217 347 217 419 q 268 224 217 275 q 349 178 303 189 m 435 179 q 513 224 479 191 q 529 242 522 233 l 669 138 q 636 102 654 119 q 435 3 551 16 l 435 -87 l 349 -87 l 349 2 q 145 102 232 15 q 43 347 43 203 q 145 593 43 491 q 349 692 232 680 l 349 781 l 435 781 l 435 692 q 636 593 551 678 q 670 554 655 574 l 531 450 q 513 470 523 460 q 435 515 479 504 l 435 179 z "},"£":{"ha":955,"x_min":43,"x_max":911,"o":"m 435 434 q 451 309 451 373 q 434 174 451 243 l 911 174 l 911 0 l 130 0 q 256 353 256 221 q 241 434 256 399 l 43 434 l 43 608 l 182 608 q 174 694 174 652 q 288 971 174 857 q 564 1085 402 1085 q 840 971 726 1085 q 899 897 876 936 l 770 764 q 718 848 755 811 q 564 911 654 911 q 411 848 474 911 q 347 718 347 785 q 370 608 347 678 l 738 608 l 738 434 l 435 434 z "},"¤":{"ha":608,"x_min":43,"x_max":565,"o":"m 123 612 l 43 692 l 98 747 l 178 667 q 245 699 208 688 q 305 708 275 708 q 361 700 333 708 q 431 667 400 688 l 511 747 l 565 692 l 486 613 q 518 544 507 582 q 526 486 526 515 q 518 429 526 458 q 486 359 507 391 l 565 280 l 511 225 l 431 305 q 362 273 400 283 q 304 264 334 264 q 247 273 276 264 q 178 305 208 283 l 98 225 l 43 280 l 123 359 q 91 429 102 391 q 83 486 83 458 q 92 545 83 516 q 123 612 102 583 m 304 406 q 365 432 340 406 q 391 493 391 457 q 365 554 391 529 q 304 580 340 580 q 242 554 268 580 q 217 493 217 529 q 242 432 217 457 q 304 406 268 406 z "},"¥":{"ha":955,"x_min":43,"x_max":911,"o":"m 391 434 l 391 494 l 380 521 l 43 1042 l 239 1042 l 477 672 l 716 1042 l 911 1042 l 575 521 l 564 501 l 564 434 l 825 434 l 825 347 l 564 347 l 564 260 l 825 260 l 825 174 l 564 174 l 564 0 l 391 0 l 391 174 l 130 174 l 130 260 l 391 260 l 391 347 l 130 347 l 130 434 l 391 434 z "},"¦":{"ha":260,"x_min":43,"x_max":217,"o":"m 43 608 l 43 1302 l 217 1302 l 217 608 l 43 608 m 217 434 l 217 -260 l 43 -260 l 43 434 l 217 434 z "},"§":{"ha":797,"x_min":43,"x_max":753,"o":"m 290 755 q 237 787 263 770 q 156 853 192 816 q 100 938 120 890 q 84 1023 84 975 q 85 1049 84 1036 q 146 1202 94 1138 q 283 1297 199 1265 q 421 1321 347 1321 q 463 1319 441 1321 q 658 1250 580 1309 q 701 1211 682 1232 l 599 1074 q 557 1113 581 1096 q 450 1152 509 1147 q 426 1154 437 1154 q 315 1121 366 1154 q 258 1030 263 1088 q 257 1020 257 1025 q 277 963 257 989 q 338 913 298 937 q 431 861 378 888 l 437 858 l 475 838 q 624 743 559 793 q 724 630 689 693 q 753 510 753 577 q 752 481 753 496 q 686 319 743 385 q 571 235 640 265 q 622 199 598 217 q 722 85 687 149 q 751 -35 751 33 q 750 -64 751 -49 q 684 -226 741 -159 q 535 -323 627 -292 q 386 -347 466 -347 q 333 -345 360 -347 q 106 -267 199 -333 q 43 -212 71 -242 l 149 -70 q 211 -126 175 -102 q 351 -174 272 -166 q 385 -175 368 -175 q 513 -144 454 -175 q 578 -52 572 -113 q 578 -41 578 -46 q 558 21 578 -9 q 502 81 538 52 q 419 137 465 111 q 338 182 378 161 l 327 189 q 299 204 313 197 q 96 400 134 290 q 82 479 82 435 q 83 505 82 492 q 144 657 92 593 q 281 752 197 721 q 290 755 285 753 m 410 370 q 533 408 482 370 q 584 500 584 446 q 533 593 584 555 q 410 631 482 631 q 288 593 338 631 q 237 500 237 555 q 288 408 237 446 q 410 370 338 370 z "},"¨":{"ha":608,"x_min":43,"x_max":564,"o":"m 152 1128 q 75 1160 107 1128 q 43 1237 43 1192 q 75 1314 43 1282 q 152 1345 107 1345 q 229 1314 197 1345 q 260 1237 260 1282 q 229 1160 260 1192 q 152 1128 197 1128 m 456 1128 q 379 1160 411 1128 q 347 1237 347 1192 q 379 1314 347 1282 q 456 1345 411 1345 q 532 1314 500 1345 q 564 1237 564 1282 q 532 1160 564 1192 q 456 1128 500 1128 z "},"©":{"ha":1215,"x_min":43,"x_max":1172,"o":"m 608 0 q 209 165 374 0 q 43 564 43 330 q 209 963 43 798 q 608 1128 374 1128 q 1007 963 842 1128 q 1172 564 1172 798 q 1007 165 1172 330 q 608 0 842 0 m 608 87 q 945 227 806 87 q 1085 564 1085 366 q 945 902 1085 762 q 608 1042 806 1042 q 270 902 410 1042 q 130 564 130 762 q 270 227 130 366 q 608 87 410 87 m 606 772 q 458 711 519 772 q 397 563 397 650 q 458 415 397 476 q 606 353 519 353 q 742 404 685 353 l 808 338 q 606 260 724 260 q 392 349 481 260 q 304 563 304 437 q 393 777 304 688 q 606 865 481 865 l 606 865 q 821 777 732 865 l 831 765 l 766 699 l 755 711 q 606 772 693 772 l 606 772 z "},"ª":{"ha":406,"x_min":43,"x_max":362,"o":"m 127 836 l 103 783 l 43 783 l 203 1128 l 362 783 l 302 783 l 278 836 l 127 836 m 254 890 l 203 1002 l 151 890 l 254 890 z "},"«":{"ha":1042,"x_min":43,"x_max":998,"o":"m 608 651 l 304 477 l 608 304 l 608 130 l 43 477 l 608 825 l 608 651 m 998 653 l 694 479 l 998 306 l 998 132 l 434 479 l 998 827 l 998 653 z "},"¬":{"ha":694,"x_min":43,"x_max":651,"o":"m 43 607 l 651 608 l 651 174 l 477 174 l 477 434 l 43 434 l 43 607 z "},"®":{"ha":1215,"x_min":43,"x_max":1172,"o":"m 608 0 q 209 165 374 0 q 43 564 43 330 q 209 963 43 798 q 608 1128 374 1128 q 1007 963 842 1128 q 1172 564 1172 798 q 1007 165 1172 330 q 608 0 842 0 m 608 87 q 945 227 806 87 q 1085 564 1085 366 q 945 902 1085 762 q 608 1042 806 1042 q 270 902 410 1042 q 130 564 130 762 q 270 227 130 366 q 608 87 410 87 m 573 456 l 505 456 l 505 319 l 414 319 l 414 868 l 619 868 q 765 808 705 868 q 825 662 825 747 q 764 517 825 577 q 679 465 727 479 l 825 319 l 711 319 l 573 456 m 505 777 l 505 548 l 619 548 q 700 581 667 548 q 733 662 733 614 q 700 743 733 709 q 619 777 667 777 l 505 777 z "},"¯":{"ha":608,"x_min":43,"x_max":564,"o":"m 564 1128 l 43 1128 l 43 1259 l 564 1259 l 564 1128 z "},"°":{"ha":477,"x_min":43,"x_max":434,"o":"m 239 694 q 101 752 158 694 q 43 890 43 809 q 101 1028 43 970 q 239 1085 158 1085 q 377 1028 319 1085 q 434 890 434 970 q 377 752 434 809 q 239 694 319 694 m 239 781 q 315 813 283 781 q 347 890 347 845 q 315 966 347 935 q 239 998 283 998 q 162 966 194 998 q 130 890 130 935 q 162 813 130 845 q 239 781 194 781 z "},"±":{"ha":608,"x_min":43,"x_max":564,"o":"m 391 608 l 564 608 l 564 434 l 391 434 l 391 260 l 217 260 l 217 434 l 43 434 l 43 608 l 217 608 l 217 781 l 391 781 l 391 608 m 564 0 l 43 0 l 43 174 l 564 174 l 564 0 z "},"²":{"ha":350,"x_min":43,"x_max":307,"o":"m 47 1018 q 68 1044 56 1031 q 168 1085 109 1085 q 266 1044 225 1085 q 307 945 307 1004 q 283 869 307 902 l 284 868 l 281 865 l 273 854 l 190 760 l 307 760 l 307 698 l 43 698 l 168 829 q 245 945 245 913 q 222 1001 245 978 q 168 1023 199 1023 q 113 1000 135 1023 q 94 970 99 987 l 47 1018 z "},"³":{"ha":356,"x_min":43,"x_max":313,"o":"m 80 1023 q 102 1054 88 1040 q 177 1085 133 1085 q 251 1054 220 1085 q 282 979 282 1023 q 252 919 282 943 q 313 828 313 889 q 273 732 313 772 q 177 692 233 692 q 81 732 120 692 q 43 801 51 762 l 102 814 q 123 775 106 791 q 177 753 145 753 q 230 775 208 753 q 252 828 252 797 q 158 875 245 875 q 132 873 146 875 l 132 934 q 222 979 222 934 q 209 1011 222 998 q 177 1025 195 1025 q 144 1011 158 1025 q 133 991 136 1002 l 80 1023 z "},"´":{"ha":373,"x_min":43,"x_max":330,"o":"m 96 1128 l 43 1197 l 224 1389 l 330 1251 l 96 1128 z "},"µ":{"ha":868,"x_min":43,"x_max":825,"o":"m 43 868 l 217 868 l 217 347 q 280 194 217 257 q 434 130 344 130 q 588 194 524 130 q 651 347 651 257 l 651 868 l 825 868 l 825 0 l 651 0 l 651 22 q 434 -43 556 -43 q 217 22 312 -43 l 217 -260 l 43 -260 l 43 868 z "},"¶":{"ha":781,"x_min":43,"x_max":738,"o":"m 217 1042 l 738 1042 l 738 0 l 564 0 l 564 868 l 391 868 l 391 0 l 217 0 l 217 694 q 94 745 145 694 q 43 868 43 796 q 94 991 43 940 q 217 1042 145 1042 z "},"·":{"ha":347,"x_min":43,"x_max":304,"o":"m 174 391 q 81 429 119 391 q 43 521 43 467 q 81 613 43 575 q 174 651 119 651 q 266 613 228 651 q 304 521 304 575 q 266 429 304 467 q 174 391 228 391 z "},"¸":{"ha":363,"x_min":43,"x_max":320,"o":"m 43 -197 q 146 -232 101 -232 q 211 -217 191 -232 q 230 -172 230 -203 q 197 -129 230 -142 q 127 -118 170 -118 q 104 -119 117 -118 l 137 0 l 180 0 l 155 -71 q 197 -67 176 -68 q 288 -95 255 -67 q 320 -172 320 -122 q 280 -253 320 -223 q 172 -283 241 -283 q 43 -262 98 -283 l 43 -197 z "},"¹":{"ha":180,"x_min":43,"x_max":137,"o":"m 137 695 l 75 695 l 75 964 l 43 945 l 43 1008 l 137 1087 l 137 695 z "},"º":{"ha":401,"x_min":43,"x_max":358,"o":"m 201 694 q 90 749 136 694 q 43 880 43 804 q 90 1012 43 958 q 201 1066 136 1066 q 312 1012 266 1066 q 358 880 358 958 q 312 749 358 804 q 201 694 266 694 m 201 751 q 272 789 242 751 q 301 880 301 827 q 272 971 301 934 q 201 1009 242 1009 q 130 971 159 1009 q 100 880 100 934 q 130 789 100 827 q 201 751 159 751 z "},"»":{"ha":1042,"x_min":43,"x_max":998,"o":"m 434 651 l 434 825 l 998 477 l 434 130 l 434 304 l 738 477 l 434 651 m 43 653 l 43 827 l 608 479 l 43 132 l 43 306 l 347 479 l 43 653 z "},"¼":{"ha":1302,"x_min":43,"x_max":1259,"o":"m 43 0 l 1042 1042 l 1259 1042 l 260 0 l 43 0 m 391 608 l 315 608 l 315 934 l 277 911 l 277 987 l 391 1083 l 391 608 m 802 108 l 873 430 l 945 430 l 891 179 l 999 179 l 999 430 l 1070 430 l 1070 179 l 1142 179 l 1142 108 l 1070 108 l 1070 0 l 999 0 l 999 108 l 802 108 z "},"½":{"ha":1302,"x_min":43,"x_max":1259,"o":"m 43 0 l 1042 1042 l 1259 1042 l 260 0 l 43 0 m 391 608 l 315 608 l 315 934 l 277 911 l 277 987 l 391 1083 l 391 608 m 829 370 q 854 401 840 387 q 968 448 901 448 q 1082 400 1035 448 q 1129 287 1129 353 q 1103 197 1129 236 l 1099 193 q 1089 180 1095 186 l 994 72 l 1129 72 l 1129 0 l 825 0 l 968 152 q 1057 287 1057 250 q 1031 350 1057 323 q 968 376 1005 376 q 905 350 930 376 q 883 315 889 335 l 829 370 z "},"¾":{"ha":1302,"x_min":43,"x_max":1259,"o":"m 43 0 l 1042 1042 l 1259 1042 l 260 0 l 43 0 m 802 108 l 873 430 l 945 430 l 891 179 l 999 179 l 999 430 l 1070 430 l 1070 179 l 1142 179 l 1142 108 l 1070 108 l 1070 0 l 999 0 l 999 108 l 802 108 m 221 965 q 248 1003 231 986 q 341 1042 286 1042 q 434 1003 395 1042 q 473 910 473 965 q 435 835 473 865 q 510 722 510 798 q 460 603 510 652 q 341 553 411 553 q 221 603 271 553 q 175 688 184 640 l 249 704 q 275 656 254 676 q 341 628 302 628 q 407 655 380 628 q 435 722 435 683 q 317 780 426 780 q 284 779 302 780 l 284 854 q 397 910 397 854 q 381 950 397 934 q 341 966 364 966 q 301 950 317 966 q 286 924 290 939 l 221 965 z "},"¿":{"ha":795,"x_min":43,"x_max":751,"o":"m 593 736 l 593 734 q 457 530 593 606 q 376 484 416 508 q 293 428 330 458 q 235 366 256 399 q 216 306 216 338 q 217 296 216 301 q 288 199 222 234 q 410 172 340 172 q 444 174 427 172 q 584 221 523 181 q 646 277 620 245 l 751 136 q 688 80 724 105 q 462 3 596 14 q 409 0 435 0 q 249 27 329 0 q 111 121 168 55 q 45 283 54 188 q 43 313 43 298 q 76 438 43 380 q 297 616 108 496 q 399 736 399 693 l 593 736 m 486 1084 q 578 1046 541 1084 q 616 954 616 1008 q 578 861 616 899 q 486 823 541 823 q 394 861 432 823 q 356 954 356 899 q 394 1046 356 1008 q 486 1084 432 1084 z "},"À":{"ha":1128,"x_min":43,"x_max":1085,"o":"m 317 174 l 239 0 l 43 0 l 564 1128 l 1085 0 l 890 0 l 811 174 l 317 174 m 732 347 l 564 716 l 397 347 l 732 347 m 650 1172 l 417 1295 l 522 1433 l 703 1241 l 650 1172 z "},"Á":{"ha":1128,"x_min":43,"x_max":1085,"o":"m 317 174 l 239 0 l 43 0 l 564 1128 l 1085 0 l 890 0 l 811 174 l 317 174 m 732 347 l 564 716 l 397 347 l 732 347 m 504 1175 l 452 1244 l 632 1436 l 738 1297 l 504 1175 z "},"Â":{"ha":1128,"x_min":43,"x_max":1085,"o":"m 317 174 l 239 0 l 43 0 l 564 1128 l 1085 0 l 890 0 l 811 174 l 317 174 m 732 347 l 564 716 l 397 347 l 732 347 m 304 1172 l 564 1432 l 825 1172 l 651 1172 l 564 1259 l 477 1172 l 304 1172 z "},"Ã":{"ha":1128,"x_min":43,"x_max":1085,"o":"m 317 174 l 239 0 l 43 0 l 564 1128 l 1085 0 l 890 0 l 811 174 l 317 174 m 732 347 l 564 716 l 397 347 l 732 347 m 779 1344 q 728 1255 764 1295 q 629 1215 691 1215 q 519 1236 591 1215 q 478 1243 494 1243 q 441 1215 445 1243 l 347 1215 q 398 1305 361 1267 q 488 1344 435 1344 q 603 1325 530 1344 q 644 1319 627 1319 q 683 1345 679 1319 l 779 1344 z "},"Ä":{"ha":1128,"x_min":43,"x_max":1085,"o":"m 317 174 l 239 0 l 43 0 l 564 1128 l 1085 0 l 890 0 l 811 174 l 317 174 m 732 347 l 564 716 l 397 347 l 732 347 m 456 1172 q 394 1197 420 1172 q 369 1259 369 1223 q 394 1320 369 1295 q 456 1345 420 1345 q 517 1320 492 1345 q 543 1259 543 1295 q 517 1197 543 1223 q 456 1172 492 1172 m 673 1172 q 611 1197 637 1172 q 586 1259 586 1223 q 611 1320 586 1295 q 673 1345 637 1345 q 734 1320 709 1345 q 760 1259 760 1295 q 734 1197 760 1223 q 673 1172 709 1172 z "},"Å":{"ha":1128,"x_min":43,"x_max":1085,"o":"m 732 347 l 564 716 l 397 347 l 732 347 m 564 1160 q 617 1182 595 1160 q 639 1236 639 1204 q 617 1288 639 1266 q 564 1310 595 1310 q 511 1288 533 1310 q 489 1236 489 1266 q 511 1182 489 1204 q 564 1160 533 1160 m 584 1086 l 1085 0 l 890 0 l 811 174 l 317 174 l 239 0 l 43 0 l 545 1086 q 458 1129 495 1092 q 414 1236 414 1173 q 458 1341 414 1297 q 564 1385 502 1385 q 670 1341 626 1385 q 714 1236 714 1297 q 670 1129 714 1173 q 584 1086 633 1093 z "},"Æ":{"ha":1563,"x_min":43,"x_max":1519,"o":"m 732 347 l 564 716 l 397 347 l 732 347 m 890 0 l 811 174 l 317 174 l 239 0 l 43 0 l 564 1128 l 911 376 l 911 1042 l 1519 1042 l 1519 868 l 1085 868 l 1085 608 l 1432 608 l 1432 434 l 1085 434 l 1085 174 l 1519 174 l 1519 0 l 890 0 z "},"Ç":{"ha":1072,"x_min":43,"x_max":1028,"o":"m 574 -43 q 209 122 361 -31 q 43 521 43 287 q 209 920 43 755 q 607 1085 374 1085 l 608 1085 q 1007 920 842 1085 q 1028 898 1018 909 l 905 775 q 884 798 895 787 q 608 911 770 911 l 607 911 q 332 798 446 911 q 217 521 217 683 q 331 244 217 359 q 608 130 446 130 q 861 224 754 130 l 985 100 q 613 -43 828 -41 l 604 -71 q 646 -67 625 -68 q 736 -95 704 -67 q 769 -172 769 -122 q 729 -253 769 -223 q 621 -283 690 -283 q 492 -262 547 -283 l 492 -197 q 595 -232 550 -232 q 660 -217 640 -232 q 679 -172 679 -203 q 646 -129 679 -142 q 576 -118 618 -118 q 553 -119 566 -118 l 574 -43 z "},"È":{"ha":694,"x_min":43,"x_max":651,"o":"m 651 1042 l 651 868 l 217 868 l 217 608 l 564 608 l 564 434 l 217 434 l 217 174 l 651 174 l 651 0 l 43 0 l 43 1042 l 651 1042 m 433 1085 l 200 1208 l 305 1346 l 486 1154 l 433 1085 z "},"É":{"ha":694,"x_min":43,"x_max":651,"o":"m 651 1042 l 651 868 l 217 868 l 217 608 l 564 608 l 564 434 l 217 434 l 217 174 l 651 174 l 651 0 l 43 0 l 43 1042 l 651 1042 m 287 1088 l 235 1157 l 415 1349 l 521 1211 l 287 1088 z "},"Ê":{"ha":694,"x_min":43,"x_max":651,"o":"m 651 1042 l 651 868 l 217 868 l 217 608 l 564 608 l 564 434 l 217 434 l 217 174 l 651 174 l 651 0 l 43 0 l 43 1042 l 651 1042 m 87 1085 l 347 1345 l 608 1085 l 434 1085 l 347 1172 l 260 1085 l 87 1085 z "},"Ë":{"ha":694,"x_min":43,"x_max":651,"o":"m 651 1042 l 651 868 l 217 868 l 217 608 l 564 608 l 564 434 l 217 434 l 217 174 l 651 174 l 651 0 l 43 0 l 43 1042 l 651 1042 m 239 1085 q 177 1111 203 1085 q 152 1172 152 1136 q 177 1233 152 1208 q 239 1259 203 1259 q 300 1233 275 1259 q 326 1172 326 1208 q 300 1111 326 1136 q 239 1085 275 1085 m 456 1085 q 394 1111 420 1085 q 369 1172 369 1136 q 394 1233 369 1208 q 456 1259 420 1259 q 517 1233 492 1259 q 543 1172 543 1208 q 517 1111 543 1136 q 456 1085 492 1085 z "},"Ì":{"ha":260,"x_min":-17,"x_max":269,"o":"m 217 0 l 43 0 l 43 1042 l 217 1042 l 217 0 m 216 1085 l -17 1208 l 88 1346 l 269 1154 l 216 1085 z "},"Í":{"ha":260,"x_min":18,"x_max":304,"o":"m 217 0 l 43 0 l 43 1042 l 217 1042 l 217 0 m 70 1088 l 18 1157 l 198 1349 l 304 1211 l 70 1088 z "},"Î":{"ha":260,"x_min":-130,"x_max":391,"o":"m 217 0 l 43 0 l 43 1042 l 217 1042 l 217 0 m -130 1085 l 130 1345 l 391 1085 l 217 1085 l 130 1172 l 43 1085 l -130 1085 z "},"Ï":{"ha":260,"x_min":-65,"x_max":326,"o":"m 217 0 l 43 0 l 43 1042 l 217 1042 l 217 0 m 22 1085 q -40 1111 -14 1085 q -65 1172 -65 1136 q -40 1233 -65 1208 q 22 1259 -14 1259 q 83 1233 58 1259 q 109 1172 109 1208 q 83 1111 109 1136 q 22 1085 58 1085 m 239 1085 q 177 1111 203 1085 q 152 1172 152 1136 q 177 1233 152 1208 q 239 1259 203 1259 q 300 1233 275 1259 q 326 1172 326 1208 q 300 1111 326 1136 q 239 1085 275 1085 z "},"Ð":{"ha":1264,"x_min":43,"x_max":1221,"o":"m 439 477 l 439 174 l 700 174 q 945 275 844 174 q 1047 521 1047 377 q 945 766 1047 665 q 700 868 844 868 l 439 868 l 439 564 l 738 564 l 738 477 l 439 477 m 266 564 l 266 1042 l 700 1042 q 1068 889 916 1042 q 1221 521 1221 736 q 1068 153 1221 305 q 700 0 916 0 l 266 0 l 266 477 l 43 477 l 43 564 l 266 564 z "},"Ñ":{"ha":868,"x_min":43,"x_max":825,"o":"m 217 656 l 217 0 l 43 0 l 43 1128 l 651 386 l 651 1042 l 825 1042 l 825 -87 l 217 656 m 649 1344 q 597 1255 634 1295 q 499 1215 561 1215 q 389 1236 461 1215 q 348 1243 364 1243 q 311 1215 315 1243 l 216 1215 q 268 1305 231 1267 q 357 1344 304 1344 q 473 1325 399 1344 q 513 1319 496 1319 q 553 1345 549 1319 l 649 1344 z "},"Ò":{"ha":1215,"x_min":43,"x_max":1172,"o":"m 608 -43 q 209 122 374 -43 q 43 521 43 287 q 209 920 43 755 q 608 1085 374 1085 q 1007 920 842 1085 q 1172 521 1172 755 q 1007 122 1172 287 q 608 -43 842 -43 m 608 130 q 884 244 770 130 q 998 521 998 359 q 884 797 998 683 q 608 911 770 911 q 331 797 446 911 q 217 521 217 683 q 331 244 217 359 q 608 130 446 130 m 694 1128 l 460 1251 l 566 1390 l 747 1198 l 694 1128 z "},"Ó":{"ha":1215,"x_min":43,"x_max":1172,"o":"m 608 -43 q 209 122 374 -43 q 43 521 43 287 q 209 920 43 755 q 608 1085 374 1085 q 1007 920 842 1085 q 1172 521 1172 755 q 1007 122 1172 287 q 608 -43 842 -43 m 608 130 q 884 244 770 130 q 998 521 998 359 q 884 797 998 683 q 608 911 770 911 q 331 797 446 911 q 217 521 217 683 q 331 244 217 359 q 608 130 446 130 m 547 1131 l 495 1200 l 675 1392 l 781 1254 l 547 1131 z "},"Ô":{"ha":1215,"x_min":43,"x_max":1172,"o":"m 608 -43 q 209 122 374 -43 q 43 521 43 287 q 209 920 43 755 q 608 1085 374 1085 q 1007 920 842 1085 q 1172 521 1172 755 q 1007 122 1172 287 q 608 -43 842 -43 m 608 130 q 884 244 770 130 q 998 521 998 359 q 884 797 998 683 q 608 911 770 911 q 331 797 446 911 q 217 521 217 683 q 331 244 217 359 q 608 130 446 130 m 347 1128 l 608 1389 l 868 1128 l 694 1128 l 608 1215 l 521 1128 l 347 1128 z "},"Õ":{"ha":1215,"x_min":43,"x_max":1172,"o":"m 608 -43 q 209 122 374 -43 q 43 521 43 287 q 209 920 43 755 q 608 1085 374 1085 q 1007 920 842 1085 q 1172 521 1172 755 q 1007 122 1172 287 q 608 -43 842 -43 m 608 130 q 884 244 770 130 q 998 521 998 359 q 884 797 998 683 q 608 911 770 911 q 331 797 446 911 q 217 521 217 683 q 331 244 217 359 q 608 130 446 130 m 823 1257 q 771 1168 808 1208 q 673 1128 734 1128 q 562 1149 635 1128 q 522 1156 538 1156 q 485 1128 488 1156 l 390 1128 q 441 1219 404 1180 q 531 1257 478 1257 q 646 1238 573 1257 q 687 1232 670 1232 q 726 1259 722 1232 l 823 1257 z "},"Ö":{"ha":1215,"x_min":43,"x_max":1172,"o":"m 608 -43 q 209 122 374 -43 q 43 521 43 287 q 209 920 43 755 q 608 1085 374 1085 q 1007 920 842 1085 q 1172 521 1172 755 q 1007 122 1172 287 q 608 -43 842 -43 m 608 130 q 884 244 770 130 q 998 521 998 359 q 884 797 998 683 q 608 911 770 911 q 331 797 446 911 q 217 521 217 683 q 331 244 217 359 q 608 130 446 130 m 499 1128 q 438 1154 463 1128 q 412 1215 412 1179 q 438 1277 412 1251 q 499 1302 463 1302 q 561 1277 535 1302 q 586 1215 586 1251 q 561 1154 586 1179 q 499 1128 535 1128 m 716 1128 q 655 1154 680 1128 q 629 1215 629 1179 q 655 1277 629 1251 q 716 1302 680 1302 q 778 1277 752 1302 q 803 1215 803 1251 q 778 1154 803 1179 q 716 1128 752 1128 z "},"×":{"ha":579,"x_min":43,"x_max":536,"o":"m 412 520 l 535 397 l 412 275 l 289 398 l 166 275 l 43 399 l 167 522 l 44 644 l 168 767 l 290 644 l 413 766 l 536 643 l 412 520 z "},"Ø":{"ha":1215,"x_min":43,"x_max":1172,"o":"m 1008 919 q 1172 521 1172 754 q 1007 122 1172 287 q 608 -43 842 -43 q 315 37 444 -43 l 217 -87 l 43 -87 l 208 123 q 43 521 43 288 q 209 920 43 755 q 608 1085 374 1085 q 901 1004 771 1085 l 998 1128 l 1172 1128 l 1008 919 m 316 260 l 792 867 q 608 911 709 911 q 331 797 446 911 q 217 521 217 683 q 316 260 217 370 m 899 781 l 423 175 q 608 130 506 130 q 884 244 770 130 q 998 521 998 359 q 899 781 998 672 z "},"Ù":{"ha":868,"x_min":43,"x_max":825,"o":"m 43 347 l 43 1042 l 217 1042 l 217 347 q 280 194 217 257 q 434 130 344 130 q 588 194 524 130 q 651 347 651 257 l 651 1042 l 825 1042 l 825 347 q 710 71 825 185 q 434 -43 596 -43 q 158 71 272 -43 q 43 347 43 185 m 520 1085 l 287 1208 l 392 1346 l 573 1154 l 520 1085 z "},"Ú":{"ha":868,"x_min":43,"x_max":825,"o":"m 43 347 l 43 1042 l 217 1042 l 217 347 q 280 194 217 257 q 434 130 344 130 q 588 194 524 130 q 651 347 651 257 l 651 1042 l 825 1042 l 825 347 q 710 71 825 185 q 434 -43 596 -43 q 158 71 272 -43 q 43 347 43 185 m 374 1088 l 321 1157 l 502 1349 l 608 1211 l 374 1088 z "},"Û":{"ha":868,"x_min":43,"x_max":825,"o":"m 43 347 l 43 1042 l 217 1042 l 217 347 q 280 194 217 257 q 434 130 344 130 q 588 194 524 130 q 651 347 651 257 l 651 1042 l 825 1042 l 825 347 q 710 71 825 185 q 434 -43 596 -43 q 158 71 272 -43 q 43 347 43 185 m 174 1085 l 434 1345 l 694 1085 l 521 1085 l 434 1172 l 347 1085 l 174 1085 z "},"Ü":{"ha":868,"x_min":43,"x_max":825,"o":"m 43 347 l 43 1042 l 217 1042 l 217 347 q 280 194 217 257 q 434 130 344 130 q 588 194 524 130 q 651 347 651 257 l 651 1042 l 825 1042 l 825 347 q 710 71 825 185 q 434 -43 596 -43 q 158 71 272 -43 q 43 347 43 185 m 326 1085 q 264 1111 290 1085 q 239 1172 239 1136 q 264 1233 239 1208 q 326 1259 290 1259 q 387 1233 361 1259 q 412 1172 412 1208 q 387 1111 412 1136 q 326 1085 361 1085 m 543 1085 q 481 1111 507 1085 q 456 1172 456 1136 q 481 1233 456 1208 q 543 1259 507 1259 q 604 1233 578 1259 q 629 1172 629 1208 q 604 1111 629 1136 q 543 1085 578 1085 z "},"Ý":{"ha":955,"x_min":43,"x_max":911,"o":"m 391 494 l 380 521 l 43 1042 l 239 1042 l 477 672 l 716 1042 l 911 1042 l 575 521 l 564 501 l 564 0 l 391 0 l 391 494 m 417 1088 l 365 1157 l 545 1349 l 651 1211 l 417 1088 z "},"Þ":{"ha":868,"x_min":43,"x_max":825,"o":"m 217 906 l 434 906 q 710 792 596 906 q 825 515 825 677 q 710 239 825 353 q 434 125 596 125 l 217 125 l 217 0 l 43 0 l 43 1042 l 217 1042 l 217 906 m 217 298 l 434 298 q 588 362 524 298 q 651 515 651 425 q 588 669 651 606 q 434 732 524 732 l 217 732 l 217 298 z "},"ß":{"ha":868,"x_min":43,"x_max":825,"o":"m 391 217 q 535 159 477 159 q 608 188 564 159 q 651 304 651 217 q 613 396 651 358 q 521 434 575 434 l 217 434 l 217 0 l 43 0 l 43 1042 l 347 1042 q 562 953 473 1042 q 651 738 651 864 q 616 593 651 659 q 736 519 682 572 q 825 304 825 430 q 673 -22 825 87 q 522 -71 604 -71 q 304 0 422 -71 l 391 217 m 217 608 l 347 608 q 439 646 401 608 q 477 738 477 684 q 439 830 477 792 q 347 868 401 868 l 217 868 l 217 608 z "},"à":{"ha":1128,"x_min":43,"x_max":1085,"o":"m 317 174 l 239 0 l 43 0 l 564 1128 l 1085 0 l 890 0 l 811 174 l 317 174 m 732 347 l 564 716 l 397 347 l 732 347 m 650 1172 l 417 1295 l 522 1433 l 703 1241 l 650 1172 z "},"á":{"ha":1128,"x_min":43,"x_max":1085,"o":"m 317 174 l 239 0 l 43 0 l 564 1128 l 1085 0 l 890 0 l 811 174 l 317 174 m 732 347 l 564 716 l 397 347 l 732 347 m 504 1175 l 452 1244 l 632 1436 l 738 1297 l 504 1175 z "},"â":{"ha":1128,"x_min":43,"x_max":1085,"o":"m 317 174 l 239 0 l 43 0 l 564 1128 l 1085 0 l 890 0 l 811 174 l 317 174 m 732 347 l 564 716 l 397 347 l 732 347 m 304 1172 l 564 1432 l 825 1172 l 651 1172 l 564 1259 l 477 1172 l 304 1172 z "},"ã":{"ha":1128,"x_min":43,"x_max":1085,"o":"m 317 174 l 239 0 l 43 0 l 564 1128 l 1085 0 l 890 0 l 811 174 l 317 174 m 732 347 l 564 716 l 397 347 l 732 347 m 779 1344 q 728 1255 764 1295 q 629 1215 691 1215 q 519 1236 591 1215 q 478 1243 494 1243 q 441 1215 445 1243 l 347 1215 q 398 1305 361 1267 q 488 1344 435 1344 q 603 1325 530 1344 q 644 1319 627 1319 q 683 1345 679 1319 l 779 1344 z "},"ä":{"ha":1128,"x_min":43,"x_max":1085,"o":"m 317 174 l 239 0 l 43 0 l 564 1128 l 1085 0 l 890 0 l 811 174 l 317 174 m 732 347 l 564 716 l 397 347 l 732 347 m 456 1172 q 394 1197 420 1172 q 369 1259 369 1223 q 394 1320 369 1295 q 456 1345 420 1345 q 517 1320 492 1345 q 543 1259 543 1295 q 517 1197 543 1223 q 456 1172 492 1172 m 673 1172 q 611 1197 637 1172 q 586 1259 586 1223 q 611 1320 586 1295 q 673 1345 637 1345 q 734 1320 709 1345 q 760 1259 760 1295 q 734 1197 760 1223 q 673 1172 709 1172 z "},"å":{"ha":1128,"x_min":43,"x_max":1085,"o":"m 732 347 l 564 716 l 397 347 l 732 347 m 564 1160 q 617 1182 595 1160 q 639 1236 639 1204 q 617 1288 639 1266 q 564 1310 595 1310 q 511 1288 533 1310 q 489 1236 489 1266 q 511 1182 489 1204 q 564 1160 533 1160 m 584 1086 l 1085 0 l 890 0 l 811 174 l 317 174 l 239 0 l 43 0 l 545 1086 q 458 1129 495 1092 q 414 1236 414 1173 q 458 1341 414 1297 q 564 1385 502 1385 q 670 1341 626 1385 q 714 1236 714 1297 q 670 1129 714 1173 q 584 1086 633 1093 z "},"æ":{"ha":1563,"x_min":43,"x_max":1519,"o":"m 317 174 l 239 0 l 43 0 l 564 1128 l 911 376 l 911 1042 l 1519 1042 l 1519 868 l 1085 868 l 1085 608 l 1432 608 l 1432 434 l 1085 434 l 1085 174 l 1519 174 l 1519 0 l 890 0 l 811 174 l 317 174 m 397 347 l 732 347 l 564 716 l 397 347 z "},"ç":{"ha":1072,"x_min":43,"x_max":1028,"o":"m 574 -43 q 209 122 361 -31 q 43 521 43 287 q 209 920 43 755 q 607 1085 374 1085 l 608 1085 q 1007 920 842 1085 q 1028 898 1018 909 l 905 775 q 884 798 895 787 q 608 911 770 911 l 607 911 q 332 798 446 911 q 217 521 217 683 q 331 244 217 359 q 608 130 446 130 q 861 224 754 130 l 985 100 q 613 -43 828 -41 l 604 -71 q 646 -67 625 -68 q 736 -95 704 -67 q 769 -172 769 -122 q 729 -253 769 -223 q 621 -283 690 -283 q 492 -262 547 -283 l 492 -197 q 595 -232 550 -232 q 660 -217 640 -232 q 679 -172 679 -203 q 646 -129 679 -142 q 576 -118 618 -118 q 553 -119 566 -118 l 574 -43 z "},"è":{"ha":694,"x_min":43,"x_max":651,"o":"m 651 1042 l 651 868 l 217 868 l 217 608 l 564 608 l 564 434 l 217 434 l 217 174 l 651 174 l 651 0 l 43 0 l 43 1042 l 651 1042 m 433 1085 l 200 1208 l 305 1346 l 486 1154 l 433 1085 z "},"é":{"ha":694,"x_min":43,"x_max":651,"o":"m 651 1042 l 651 868 l 217 868 l 217 608 l 564 608 l 564 434 l 217 434 l 217 174 l 651 174 l 651 0 l 43 0 l 43 1042 l 651 1042 m 287 1088 l 235 1157 l 415 1349 l 521 1211 l 287 1088 z "},"ê":{"ha":694,"x_min":43,"x_max":651,"o":"m 651 1042 l 651 868 l 217 868 l 217 608 l 564 608 l 564 434 l 217 434 l 217 174 l 651 174 l 651 0 l 43 0 l 43 1042 l 651 1042 m 87 1085 l 347 1345 l 608 1085 l 434 1085 l 347 1172 l 260 1085 l 87 1085 z "},"ë":{"ha":694,"x_min":43,"x_max":651,"o":"m 651 1042 l 651 868 l 217 868 l 217 608 l 564 608 l 564 434 l 217 434 l 217 174 l 651 174 l 651 0 l 43 0 l 43 1042 l 651 1042 m 239 1085 q 177 1111 203 1085 q 152 1172 152 1136 q 177 1233 152 1208 q 239 1259 203 1259 q 300 1233 275 1259 q 326 1172 326 1208 q 300 1111 326 1136 q 239 1085 275 1085 m 456 1085 q 394 1111 420 1085 q 369 1172 369 1136 q 394 1233 369 1208 q 456 1259 420 1259 q 517 1233 492 1259 q 543 1172 543 1208 q 517 1111 543 1136 q 456 1085 492 1085 z "},"ì":{"ha":373,"x_min":43,"x_max":330,"o":"m 321 0 l 147 0 l 147 1042 l 321 1042 l 321 0 m 277 1085 l 43 1208 l 149 1346 l 330 1154 l 277 1085 z "},"í":{"ha":373,"x_min":43,"x_max":330,"o":"m 225 0 l 52 0 l 52 1042 l 225 1042 l 225 0 m 96 1085 l 43 1154 l 224 1346 l 330 1208 l 96 1085 z "},"î":{"ha":608,"x_min":43,"x_max":564,"o":"m 391 0 l 217 0 l 217 1042 l 391 1042 l 391 0 m 43 1085 l 304 1345 l 564 1085 l 391 1085 l 304 1172 l 217 1085 l 43 1085 z "},"ï":{"ha":477,"x_min":43,"x_max":434,"o":"m 326 0 l 152 0 l 152 1042 l 326 1042 l 326 0 m 130 1085 q 69 1111 94 1085 q 43 1172 43 1136 q 69 1233 43 1208 q 130 1259 94 1259 q 192 1233 166 1259 q 217 1172 217 1208 q 192 1111 217 1136 q 130 1085 166 1085 m 347 1085 q 286 1111 311 1085 q 260 1172 260 1136 q 286 1233 260 1208 q 347 1259 311 1259 q 409 1233 383 1259 q 434 1172 434 1208 q 409 1111 434 1136 q 347 1085 383 1085 z "},"ð":{"ha":781,"x_min":43,"x_max":738,"o":"m 391 174 q 513 224 463 174 q 564 347 564 275 q 513 470 564 419 q 391 521 463 521 q 268 470 319 521 q 217 347 217 419 q 268 224 217 275 q 391 174 319 174 m 498 781 q 738 347 738 484 q 636 102 738 203 q 391 0 534 0 q 145 102 247 0 q 43 347 43 203 q 145 593 43 491 q 374 694 241 689 l 313 781 l 158 781 l 109 868 l 252 868 l 130 1042 l 304 1042 l 433 868 l 564 868 l 630 781 l 498 781 z "},"ñ":{"ha":868,"x_min":43,"x_max":825,"o":"m 217 656 l 217 0 l 43 0 l 43 1128 l 651 386 l 651 1042 l 825 1042 l 825 -87 l 217 656 m 649 1344 q 597 1255 634 1295 q 499 1215 561 1215 q 389 1236 461 1215 q 348 1243 364 1243 q 311 1215 315 1243 l 216 1215 q 268 1305 231 1267 q 357 1344 304 1344 q 473 1325 399 1344 q 513 1319 496 1319 q 553 1345 549 1319 l 649 1344 z "},"ò":{"ha":1215,"x_min":43,"x_max":1172,"o":"m 608 -43 q 209 122 374 -43 q 43 521 43 287 q 209 920 43 755 q 608 1085 374 1085 q 1007 920 842 1085 q 1172 521 1172 755 q 1007 122 1172 287 q 608 -43 842 -43 m 608 130 q 884 244 770 130 q 998 521 998 359 q 884 797 998 683 q 608 911 770 911 q 331 797 446 911 q 217 521 217 683 q 331 244 217 359 q 608 130 446 130 m 650 1128 l 417 1251 l 522 1390 l 703 1198 l 650 1128 z "},"ó":{"ha":1215,"x_min":43,"x_max":1172,"o":"m 608 -43 q 209 122 374 -43 q 43 521 43 287 q 209 920 43 755 q 608 1085 374 1085 q 1007 920 842 1085 q 1172 521 1172 755 q 1007 122 1172 287 q 608 -43 842 -43 m 608 130 q 884 244 770 130 q 998 521 998 359 q 884 797 998 683 q 608 911 770 911 q 331 797 446 911 q 217 521 217 683 q 331 244 217 359 q 608 130 446 130 m 565 1128 l 513 1198 l 693 1390 l 799 1251 l 565 1128 z "},"ô":{"ha":1215,"x_min":43,"x_max":1172,"o":"m 608 -43 q 209 122 374 -43 q 43 521 43 287 q 209 920 43 755 q 608 1085 374 1085 q 1007 920 842 1085 q 1172 521 1172 755 q 1007 122 1172 287 q 608 -43 842 -43 m 608 130 q 884 244 770 130 q 998 521 998 359 q 884 797 998 683 q 608 911 770 911 q 331 797 446 911 q 217 521 217 683 q 331 244 217 359 q 608 130 446 130 m 347 1128 l 608 1389 l 868 1128 l 694 1128 l 608 1215 l 521 1128 l 347 1128 z "},"õ":{"ha":1215,"x_min":43,"x_max":1172,"o":"m 608 -43 q 209 122 374 -43 q 43 521 43 287 q 209 920 43 755 q 608 1085 374 1085 q 1007 920 842 1085 q 1172 521 1172 755 q 1007 122 1172 287 q 608 -43 842 -43 m 608 130 q 884 244 770 130 q 998 521 998 359 q 884 797 998 683 q 608 911 770 911 q 331 797 446 911 q 217 521 217 683 q 331 244 217 359 q 608 130 446 130 m 824 1257 q 772 1168 809 1208 q 674 1128 736 1128 q 564 1149 636 1128 q 523 1156 539 1156 q 486 1128 490 1156 l 391 1128 q 443 1219 406 1180 q 532 1257 479 1257 q 648 1238 574 1257 q 688 1232 671 1232 q 728 1259 724 1232 l 824 1257 z "},"ö":{"ha":1215,"x_min":43,"x_max":1172,"o":"m 608 -43 q 209 122 374 -43 q 43 521 43 287 q 209 920 43 755 q 608 1085 374 1085 q 1007 920 842 1085 q 1172 521 1172 755 q 1007 122 1172 287 q 608 -43 842 -43 m 608 130 q 884 244 770 130 q 998 521 998 359 q 884 797 998 683 q 608 911 770 911 q 331 797 446 911 q 217 521 217 683 q 331 244 217 359 q 608 130 446 130 m 499 1128 q 438 1154 463 1128 q 412 1215 412 1179 q 438 1277 412 1251 q 499 1302 463 1302 q 561 1277 535 1302 q 586 1215 586 1251 q 561 1154 586 1179 q 499 1128 535 1128 m 716 1128 q 655 1154 680 1128 q 629 1215 629 1179 q 655 1277 629 1251 q 716 1302 680 1302 q 778 1277 752 1302 q 803 1215 803 1251 q 778 1154 803 1179 q 716 1128 752 1128 z "},"÷":{"ha":521,"x_min":43,"x_max":477,"o":"m 477 434 l 43 434 l 43 608 l 477 608 l 477 434 m 260 130 q 168 168 206 130 q 130 260 130 206 q 168 353 130 315 q 260 391 206 391 q 353 353 315 391 q 391 260 391 315 q 353 168 391 206 q 260 130 315 130 m 260 651 q 168 689 206 651 q 130 781 130 727 q 168 873 130 836 q 260 911 206 911 q 353 873 315 911 q 391 781 391 836 q 353 689 391 727 q 260 651 315 651 z "},"ø":{"ha":1215,"x_min":43,"x_max":1172,"o":"m 1008 919 q 1172 521 1172 754 q 1007 122 1172 287 q 608 -43 842 -43 q 315 37 444 -43 l 217 -87 l 43 -87 l 208 123 q 43 521 43 288 q 209 920 43 755 q 608 1085 374 1085 q 901 1004 771 1085 l 998 1128 l 1172 1128 l 1008 919 m 316 260 l 792 867 q 608 911 709 911 q 331 797 446 911 q 217 521 217 683 q 316 260 217 370 m 899 781 l 423 175 q 608 130 506 130 q 884 244 770 130 q 998 521 998 359 q 899 781 998 672 z "},"ù":{"ha":868,"x_min":43,"x_max":825,"o":"m 43 347 l 43 1042 l 217 1042 l 217 347 q 280 194 217 257 q 434 130 344 130 q 588 194 524 130 q 651 347 651 257 l 651 1042 l 825 1042 l 825 347 q 710 71 825 185 q 434 -43 596 -43 q 158 71 272 -43 q 43 347 43 185 m 520 1085 l 287 1208 l 392 1346 l 573 1154 l 520 1085 z "},"ú":{"ha":868,"x_min":43,"x_max":825,"o":"m 43 347 l 43 1042 l 217 1042 l 217 347 q 280 194 217 257 q 434 130 344 130 q 588 194 524 130 q 651 347 651 257 l 651 1042 l 825 1042 l 825 347 q 710 71 825 185 q 434 -43 596 -43 q 158 71 272 -43 q 43 347 43 185 m 374 1088 l 321 1157 l 502 1349 l 608 1211 l 374 1088 z "},"û":{"ha":868,"x_min":43,"x_max":825,"o":"m 43 347 l 43 1042 l 217 1042 l 217 347 q 280 194 217 257 q 434 130 344 130 q 588 194 524 130 q 651 347 651 257 l 651 1042 l 825 1042 l 825 347 q 710 71 825 185 q 434 -43 596 -43 q 158 71 272 -43 q 43 347 43 185 m 174 1085 l 434 1345 l 694 1085 l 521 1085 l 434 1172 l 347 1085 l 174 1085 z "},"ü":{"ha":868,"x_min":43,"x_max":825,"o":"m 43 347 l 43 1042 l 217 1042 l 217 347 q 280 194 217 257 q 434 130 344 130 q 588 194 524 130 q 651 347 651 257 l 651 1042 l 825 1042 l 825 347 q 710 71 825 185 q 434 -43 596 -43 q 158 71 272 -43 q 43 347 43 185 m 326 1085 q 264 1111 290 1085 q 239 1172 239 1136 q 264 1233 239 1208 q 326 1259 290 1259 q 387 1233 361 1259 q 412 1172 412 1208 q 387 1111 412 1136 q 326 1085 361 1085 m 543 1085 q 481 1111 507 1085 q 456 1172 456 1136 q 481 1233 456 1208 q 543 1259 507 1259 q 604 1233 578 1259 q 629 1172 629 1208 q 604 1111 629 1136 q 543 1085 578 1085 z "},"ý":{"ha":955,"x_min":43,"x_max":911,"o":"m 391 494 l 380 521 l 43 1042 l 239 1042 l 477 672 l 716 1042 l 911 1042 l 575 521 l 564 501 l 564 0 l 391 0 l 391 494 m 417 1088 l 365 1157 l 545 1349 l 651 1211 l 417 1088 z "},"þ":{"ha":868,"x_min":43,"x_max":825,"o":"m 217 906 l 434 906 q 710 792 596 906 q 825 515 825 677 q 710 239 825 353 q 434 125 596 125 l 217 125 l 217 0 l 43 0 l 43 1042 l 217 1042 l 217 906 m 217 298 l 434 298 q 588 362 524 298 q 651 515 651 425 q 588 669 651 606 q 434 732 524 732 l 217 732 l 217 298 z "},"ÿ":{"ha":955,"x_min":43,"x_max":911,"o":"m 391 494 l 380 521 l 43 1042 l 239 1042 l 477 672 l 716 1042 l 911 1042 l 575 521 l 564 501 l 564 0 l 391 0 l 391 494 m 369 1085 q 308 1111 333 1085 q 282 1172 282 1136 q 308 1233 282 1208 q 369 1259 333 1259 q 430 1233 405 1259 q 456 1172 456 1208 q 430 1111 456 1136 q 369 1085 405 1085 m 586 1085 q 525 1111 550 1085 q 499 1172 499 1136 q 525 1233 499 1208 q 586 1259 550 1259 q 647 1233 622 1259 q 673 1172 673 1208 q 647 1111 673 1136 q 586 1085 622 1085 z "},"ı":{"ha":260,"x_min":43,"x_max":217,"o":"m 217 0 l 43 0 l 43 1042 l 217 1042 l 217 0 z "},"̀":{"ha":373,"x_min":148,"x_max":434,"o":"m 381 1085 l 148 1208 l 253 1346 l 434 1154 l 381 1085 z "},"́":{"ha":373,"x_min":87,"x_max":373,"o":"m 139 1088 l 87 1157 l 267 1349 l 373 1211 l 139 1088 z "},"̂":{"ha":608,"x_min":43,"x_max":564,"o":"m 43 1085 l 304 1345 l 564 1085 l 391 1085 l 304 1172 l 217 1085 l 43 1085 z "},"̃":{"ha":519,"x_min":43,"x_max":476,"o":"m 476 1257 q 425 1168 461 1208 q 326 1128 388 1128 q 216 1149 288 1128 q 175 1156 191 1156 q 138 1128 142 1156 l 43 1128 q 95 1219 58 1180 q 184 1257 132 1257 q 300 1238 227 1257 q 340 1232 323 1232 q 380 1259 376 1232 l 476 1257 z "},"̄":{"ha":608,"x_min":43,"x_max":564,"o":"m 564 1128 l 43 1128 l 43 1259 l 564 1259 l 564 1128 z "},"̇":{"ha":304,"x_min":43,"x_max":260,"o":"m 152 1128 q 75 1160 107 1128 q 43 1237 43 1192 q 75 1314 43 1282 q 152 1345 107 1345 q 229 1314 197 1345 q 260 1237 260 1282 q 229 1160 260 1192 q 152 1128 197 1128 z "},"̈":{"ha":477,"x_min":130,"x_max":521,"o":"m 217 1085 q 156 1111 181 1085 q 130 1172 130 1136 q 156 1233 130 1208 q 217 1259 181 1259 q 278 1233 253 1259 q 304 1172 304 1208 q 278 1111 304 1136 q 217 1085 253 1085 m 434 1085 q 373 1111 398 1085 q 347 1172 347 1136 q 373 1233 347 1208 q 434 1259 398 1259 q 495 1233 470 1259 q 521 1172 521 1208 q 495 1111 521 1136 q 434 1085 470 1085 z "},"̊":{"ha":387,"x_min":43,"x_max":344,"o":"m 194 998 q 87 1042 132 998 q 43 1149 43 1086 q 87 1255 43 1211 q 194 1299 132 1299 q 300 1255 256 1299 q 344 1149 344 1211 q 300 1042 344 1086 q 194 998 256 998 m 194 1074 q 247 1096 224 1074 q 269 1149 269 1118 q 247 1201 269 1179 q 194 1223 224 1223 q 141 1201 163 1223 q 119 1149 119 1179 q 141 1096 119 1118 q 194 1074 163 1074 z "},"̌":{"ha":608,"x_min":43,"x_max":564,"o":"m 43 1389 l 217 1389 l 304 1302 l 391 1389 l 564 1389 l 304 1128 l 43 1389 z "},"̧":{"ha":363,"x_min":43,"x_max":320,"o":"m 43 -197 q 146 -232 101 -232 q 211 -217 191 -232 q 230 -172 230 -203 q 197 -129 230 -142 q 127 -118 170 -118 q 104 -119 117 -118 l 137 0 l 180 0 l 155 -71 q 197 -67 176 -68 q 288 -95 255 -67 q 320 -172 320 -122 q 280 -253 320 -223 q 172 -283 241 -283 q 43 -262 98 -283 l 43 -197 z "},"–":{"ha":521,"x_min":43,"x_max":477,"o":"m 477 477 l 43 477 l 43 564 l 477 564 l 477 477 z "},"—":{"ha":998,"x_min":43,"x_max":955,"o":"m 955 477 l 43 477 l 43 564 l 955 564 l 955 477 z "},"‘":{"ha":347,"x_min":43,"x_max":304,"o":"m 217 911 l 217 781 q 77 946 111 894 q 43 1042 43 998 q 81 1134 43 1096 q 174 1172 119 1172 q 266 1134 228 1172 q 304 1042 304 1096 q 266 949 304 987 q 217 911 228 911 z "},"’":{"ha":347,"x_min":43,"x_max":304,"o":"m 130 911 q 81 949 119 911 q 43 1042 43 987 q 81 1134 43 1096 q 174 1172 119 1172 q 266 1134 228 1172 q 304 1042 304 1096 q 270 946 304 998 q 130 781 236 894 l 130 911 z "},"‚":{"ha":347,"x_min":43,"x_max":304,"o":"m 130 0 q 81 38 119 0 q 43 130 43 76 q 81 222 43 184 q 174 260 119 260 q 266 222 228 260 q 304 130 304 184 q 270 35 304 87 q 130 -130 236 -18 l 130 0 z "},"“":{"ha":694,"x_min":43,"x_max":651,"o":"m 217 911 l 217 781 q 77 946 111 894 q 43 1042 43 998 q 81 1134 43 1096 q 174 1172 119 1172 q 266 1134 228 1172 q 304 1042 304 1096 q 266 949 304 987 q 217 911 228 911 m 564 911 l 564 781 q 425 946 458 894 q 391 1042 391 998 q 429 1134 391 1096 q 521 1172 467 1172 q 613 1134 575 1172 q 651 1042 651 1096 q 613 949 651 987 q 564 911 575 911 z "},"”":{"ha":694,"x_min":43,"x_max":651,"o":"m 477 911 q 429 949 467 911 q 391 1042 391 987 q 429 1134 391 1096 q 521 1172 467 1172 q 613 1134 575 1172 q 651 1042 651 1096 q 617 946 651 998 q 477 781 583 894 l 477 911 m 130 911 q 81 949 119 911 q 43 1042 43 987 q 81 1134 43 1096 q 174 1172 119 1172 q 266 1134 228 1172 q 304 1042 304 1096 q 270 946 304 998 q 130 781 236 894 l 130 911 z "},"„":{"ha":694,"x_min":43,"x_max":651,"o":"m 130 0 q 81 38 119 0 q 43 130 43 76 q 81 222 43 184 q 174 260 119 260 q 266 222 228 260 q 304 130 304 184 q 270 35 304 87 q 130 -130 236 -18 l 130 0 m 477 0 q 429 38 467 0 q 391 130 391 76 q 429 222 391 184 q 521 260 467 260 q 613 222 575 260 q 651 130 651 184 q 617 35 651 87 q 477 -130 583 -18 l 477 0 z "},"†":{"ha":608,"x_min":43,"x_max":564,"o":"m 359 608 l 304 -174 l 248 608 l 43 608 l 43 781 l 235 781 l 217 1042 l 391 1042 l 372 781 l 564 781 l 564 608 l 359 608 z "},"‡":{"ha":608,"x_min":43,"x_max":564,"o":"m 267 347 l 248 608 l 43 608 l 43 781 l 235 781 l 217 1042 l 391 1042 l 372 781 l 564 781 l 564 608 l 359 608 l 341 347 l 564 347 l 564 174 l 328 174 l 304 -174 l 279 174 l 43 174 l 43 347 l 267 347 z "},"•":{"ha":521,"x_min":43,"x_max":477,"o":"m 260 260 q 107 324 170 260 q 43 477 43 387 q 107 631 43 568 q 260 694 170 694 q 414 631 351 694 q 477 477 477 568 q 414 324 477 387 q 260 260 351 260 z "},"…":{"ha":1042,"x_min":43,"x_max":998,"o":"m 174 0 q 81 38 119 0 q 43 130 43 76 q 81 222 43 184 q 174 260 119 260 q 266 222 228 260 q 304 130 304 184 q 266 38 304 76 q 174 0 228 0 m 521 0 q 429 38 467 0 q 391 130 391 76 q 429 222 391 184 q 521 260 467 260 q 613 222 575 260 q 651 130 651 184 q 613 38 651 76 q 521 0 575 0 m 868 0 q 776 38 814 0 q 738 130 738 76 q 776 222 738 184 q 868 260 814 260 q 960 222 922 260 q 998 130 998 184 q 960 38 998 76 q 868 0 922 0 z "},"‹":{"ha":651,"x_min":43,"x_max":608,"o":"m 608 651 l 304 477 l 608 304 l 608 130 l 43 477 l 608 825 l 608 651 z "},"›":{"ha":651,"x_min":43,"x_max":608,"o":"m 43 651 l 43 825 l 608 477 l 43 130 l 43 304 l 347 477 l 43 651 z "},"⁄":{"ha":1302,"x_min":43,"x_max":1259,"o":"m 43 0 l 1042 1042 l 1259 1042 l 260 0 l 43 0 z "},"₣":{"ha":868,"x_min":43,"x_max":825,"o":"m 825 1042 l 825 868 l 391 868 l 391 608 l 738 608 l 738 434 l 391 434 l 391 260 l 564 260 l 564 174 l 391 174 l 391 0 l 217 0 l 217 174 l 43 174 l 43 260 l 217 260 l 217 1042 l 825 1042 z "},"₤":{"ha":955,"x_min":43,"x_max":911,"o":"m 180 651 q 174 694 174 678 q 288 971 174 857 q 564 1085 402 1085 q 840 971 726 1085 q 899 897 876 936 l 770 764 q 718 848 755 811 q 564 911 654 911 q 411 848 474 911 q 347 718 347 785 q 360 651 347 700 l 694 651 l 694 564 l 385 564 q 408 494 395 532 q 413 477 410 486 l 694 477 l 694 391 l 435 391 q 446 278 446 332 q 434 174 446 223 l 911 174 l 911 0 l 130 0 q 255 370 255 218 q 254 391 255 380 l 43 391 l 43 477 l 235 477 q 214 540 227 506 q 205 564 210 552 l 43 564 l 43 651 l 180 651 z "},"₧":{"ha":1042,"x_min":43,"x_max":998,"o":"m 738 694 q 679 805 726 757 q 525 868 615 868 l 308 868 l 308 694 l 738 694 m 738 608 l 308 608 l 308 434 l 525 434 q 679 498 615 434 q 738 608 726 545 m 909 694 l 998 694 l 998 608 l 909 608 q 798 375 896 473 q 521 260 683 260 l 304 260 l 304 0 l 130 0 l 130 608 l 43 608 l 43 694 l 130 694 l 130 1042 l 521 1042 q 798 928 683 1042 q 909 694 896 829 z "},"€":{"ha":1245,"x_min":43,"x_max":1202,"o":"m 231 651 q 382 920 265 803 q 781 1085 547 1085 l 781 1085 q 1181 920 1015 1085 q 1202 898 1192 909 l 1079 775 q 1058 798 1069 787 q 781 911 943 911 l 781 911 q 505 798 619 911 q 412 651 439 732 l 998 651 l 998 564 l 393 564 q 391 521 391 543 q 393 477 391 498 l 998 477 l 998 391 l 412 391 q 505 245 439 310 q 781 130 619 130 q 1035 224 928 130 l 1158 100 q 781 -43 1000 -43 q 382 122 547 -43 q 231 391 265 239 l 43 391 l 43 477 l 218 477 q 217 521 217 499 q 218 564 217 543 l 43 564 l 43 651 l 231 651 z "},"№":{"ha":1649,"x_min":43,"x_max":1606,"o":"m 1259 521 q 1381 572 1331 521 q 1432 694 1432 623 q 1381 817 1432 766 q 1259 868 1331 868 q 1136 817 1187 868 q 1085 694 1085 766 q 1136 572 1085 623 q 1259 521 1187 521 m 217 656 l 217 0 l 43 0 l 43 1128 l 651 386 l 651 1042 l 825 1042 l 825 -87 l 217 656 m 1519 87 l 998 87 l 998 260 l 1519 260 l 1519 87 m 1259 347 q 1013 449 1115 347 q 911 694 911 551 q 1013 940 911 838 q 1259 1042 1115 1042 q 1504 940 1402 1042 q 1606 694 1606 838 q 1504 449 1606 551 q 1259 347 1402 347 z "},"™":{"ha":650,"x_min":43,"x_max":607,"o":"m 178 1048 l 178 780 l 124 780 l 124 1048 l 43 1048 l 43 1101 l 258 1101 l 258 1048 l 178 1048 m 338 932 l 338 780 l 285 780 l 285 1128 l 446 860 l 607 1128 l 607 780 l 553 780 l 553 932 l 446 753 l 338 932 z "},"∂":{"ha":781,"x_min":43,"x_max":738,"o":"m 391 174 q 513 224 463 174 q 564 347 564 275 q 513 470 564 419 q 391 521 463 521 q 268 470 319 521 q 217 347 217 419 q 268 224 217 275 q 391 174 319 174 m 304 1042 q 738 347 738 484 q 636 102 738 203 q 391 0 534 0 q 145 102 247 0 q 43 347 43 203 q 145 593 43 491 q 374 694 241 689 l 130 1042 l 304 1042 z "},"∆":{"ha":781,"x_min":43,"x_max":738,"o":"m 43 0 l 391 1042 l 738 0 l 43 0 m 250 174 l 529 174 l 391 608 l 250 174 z "},"∏":{"ha":868,"x_min":43,"x_max":825,"o":"m 217 781 l 217 -174 l 43 -174 l 43 1042 l 217 1042 l 217 955 l 651 955 l 651 1042 l 825 1042 l 825 -174 l 651 -174 l 651 781 l 217 781 z "},"∑":{"ha":781,"x_min":43,"x_max":738,"o":"m 43 868 l 43 1042 l 738 1042 l 738 868 l 304 868 l 738 434 l 304 0 l 738 0 l 738 -174 l 43 -174 l 43 0 l 477 434 l 43 868 z "},"−":{"ha":521,"x_min":43,"x_max":477,"o":"m 477 434 l 43 434 l 43 608 l 477 608 l 477 434 z "},"√":{"ha":868,"x_min":43,"x_max":825,"o":"m 675 868 l 329 0 l 43 184 l 130 347 l 252 252 l 564 1042 l 825 1042 l 825 868 l 675 868 z "},"∞":{"ha":1302,"x_min":43,"x_max":1259,"o":"m 391 174 q 513 224 463 174 q 564 347 564 275 q 513 470 564 419 q 391 521 463 521 q 268 470 319 521 q 217 347 217 419 q 268 224 217 275 q 391 174 319 174 m 911 174 q 1034 224 983 174 q 1085 347 1085 275 q 1034 470 1085 419 q 911 521 983 521 q 789 470 840 521 q 738 347 738 419 q 789 224 738 275 q 911 174 840 174 m 651 117 q 636 102 644 109 q 391 0 534 0 q 145 102 247 0 q 43 347 43 203 q 145 593 43 491 q 391 694 247 694 q 636 593 534 694 q 651 577 644 585 q 666 593 659 585 q 911 694 768 694 q 1157 593 1055 694 q 1259 347 1259 491 q 1157 102 1259 203 q 911 0 1055 0 q 666 102 768 0 q 651 117 659 109 z "},"∫":{"ha":608,"x_min":43,"x_max":564,"o":"m 43 -174 l 43 0 q 217 608 217 0 q 564 1215 217 1215 l 564 1042 q 391 434 391 1042 q 43 -174 391 -174 z "},"≈":{"ha":521,"x_min":43,"x_max":477,"o":"m 477 521 l 43 521 l 43 694 l 477 694 l 477 521 m 477 260 l 43 260 l 43 434 l 477 434 l 477 260 z "},"≤":{"ha":694,"x_min":43,"x_max":651,"o":"m 608 781 l 304 608 l 608 434 l 608 260 l 43 608 l 608 955 l 608 781 m 651 0 l 43 -5 l 43 169 l 651 174 l 651 0 z "},"≥":{"ha":694,"x_min":43,"x_max":651,"o":"m 87 781 l 87 955 l 651 608 l 87 260 l 87 434 l 391 608 l 87 781 m 43 0 l 43 174 l 651 169 l 651 -5 l 43 0 z "},"ﬁ":{"ha":955,"x_min":43,"x_max":911,"o":"m 217 434 l 217 0 l 43 0 l 43 1042 l 651 1042 l 651 868 l 217 868 l 217 608 l 564 608 l 564 434 l 217 434 m 911 0 l 738 0 l 738 1042 l 911 1042 l 911 0 z "},"ﬂ":{"ha":1302,"x_min":43,"x_max":1259,"o":"m 217 434 l 217 0 l 43 0 l 43 1042 l 651 1042 l 651 868 l 217 868 l 217 608 l 564 608 l 564 434 l 217 434 m 738 0 l 738 1042 l 911 1042 l 911 174 l 1259 174 l 1259 0 l 738 0 z "},"Œ":{"ha":1652,"x_min":43,"x_max":1609,"o":"m 608 130 q 884 244 770 130 q 998 521 998 359 q 884 797 998 683 q 608 911 770 911 q 331 797 446 911 q 217 521 217 683 q 331 244 217 359 q 608 130 446 130 m 1001 116 q 608 -43 838 -43 q 209 122 374 -43 q 43 521 43 287 q 209 920 43 755 q 608 1085 374 1085 q 1001 926 838 1085 l 1001 1042 l 1609 1042 l 1609 868 l 1175 868 l 1175 608 l 1522 608 l 1522 434 l 1175 434 l 1175 174 l 1609 174 l 1609 0 l 1001 0 l 1001 116 z "},"œ":{"ha":1652,"x_min":43,"x_max":1609,"o":"m 608 130 q 884 244 770 130 q 998 521 998 359 q 884 797 998 683 q 608 911 770 911 q 331 797 446 911 q 217 521 217 683 q 331 244 217 359 q 608 130 446 130 m 1001 116 q 608 -43 838 -43 q 209 122 374 -43 q 43 521 43 287 q 209 920 43 755 q 608 1085 374 1085 q 1001 926 838 1085 l 1001 1042 l 1609 1042 l 1609 868 l 1175 868 l 1175 608 l 1522 608 l 1522 434 l 1175 434 l 1175 174 l 1609 174 l 1609 0 l 1001 0 l 1001 116 z "}}}
